<svg width="999" height="998" viewBox="0 0 999 998" fill="none" xmlns="http://www.w3.org/2000/svg">
<path d="M371.941 169.344C372.694 166.414 372.56 163.326 371.558 160.472C370.557 157.617 368.731 155.123 366.313 153.306C363.894 151.488 360.991 150.428 357.971 150.259C354.95 150.091 351.947 150.821 349.342 152.358C346.736 153.896 344.644 156.171 343.331 158.896C342.018 161.622 341.542 164.675 341.963 167.671C342.385 170.667 343.685 173.471 345.699 175.728C347.713 177.985 350.351 179.595 353.28 180.354C355.228 180.866 357.259 180.988 359.254 180.711C361.25 180.434 363.171 179.764 364.906 178.74C366.641 177.716 368.157 176.359 369.364 174.746C370.572 173.133 371.448 171.297 371.941 169.344ZM360.546 152.829C363.074 153.492 365.349 154.891 367.082 156.847C368.815 158.803 369.929 161.23 370.283 163.819C370.637 166.409 370.215 169.045 369.07 171.395C367.925 173.744 366.109 175.702 363.852 177.019C361.595 178.337 358.997 178.955 356.389 178.796C353.78 178.637 351.277 177.708 349.196 176.126C347.116 174.544 345.551 172.381 344.7 169.909C343.849 167.438 343.751 164.77 344.416 162.243C344.84 160.551 345.595 158.96 346.637 157.561C347.678 156.163 348.987 154.984 350.486 154.094C351.986 153.203 353.647 152.618 355.373 152.373C357.1 152.128 358.858 152.227 360.546 152.664V152.829Z" fill="#FFA63E"/>
<path d="M327.131 194.997C327.88 192.069 327.745 188.985 326.743 186.133C325.741 183.282 323.917 180.79 321.501 178.974C319.085 177.158 316.186 176.097 313.168 175.927C310.15 175.756 307.15 176.483 304.545 178.015C301.939 179.548 299.846 181.817 298.529 184.538C297.212 187.258 296.73 190.308 297.144 193.302C297.558 196.296 298.849 199.1 300.855 201.361C302.86 203.622 305.491 205.239 308.414 206.007C312.356 207.028 316.542 206.442 320.052 204.377C323.562 202.313 326.108 198.939 327.131 194.997V194.997ZM315.68 178.482C318.208 179.146 320.483 180.544 322.216 182.5C323.949 184.457 325.063 186.883 325.417 189.473C325.771 192.062 325.349 194.699 324.204 197.048C323.06 199.398 321.244 201.355 318.986 202.672C316.729 203.99 314.132 204.608 311.523 204.449C308.914 204.29 306.411 203.361 304.331 201.779C302.25 200.197 300.685 198.034 299.834 195.563C298.984 193.091 298.885 190.423 299.551 187.896C299.968 186.2 300.718 184.605 301.759 183.202C302.799 181.8 304.107 180.619 305.609 179.727C307.11 178.835 308.774 178.252 310.503 178.01C312.232 177.768 313.992 177.872 315.68 178.317V178.482Z" fill="#FFA63E"/>
<mask id="path-3-inside-1_63_4591" fill="white">
<path d="M358.95 217.348L312.487 137.525C312.349 137.284 312.12 137.108 311.852 137.036C311.583 136.964 311.297 137.001 311.056 137.14C310.815 137.279 310.639 137.507 310.567 137.776C310.495 138.044 310.532 138.33 310.671 138.571L357.188 218.394C357.239 218.54 357.321 218.674 357.43 218.785C357.539 218.896 357.671 218.981 357.817 219.034C357.962 219.088 358.118 219.108 358.273 219.094C358.428 219.08 358.577 219.031 358.711 218.952C358.844 218.872 358.958 218.764 359.045 218.636C359.132 218.507 359.188 218.36 359.211 218.206C359.234 218.053 359.222 217.896 359.177 217.748C359.132 217.599 359.054 217.462 358.95 217.348Z"/>
</mask>
<path d="M358.95 217.348L312.487 137.525C312.349 137.284 312.12 137.108 311.852 137.036C311.583 136.964 311.297 137.001 311.056 137.14C310.815 137.279 310.639 137.507 310.567 137.776C310.495 138.044 310.532 138.33 310.671 138.571L357.188 218.394C357.239 218.54 357.321 218.674 357.43 218.785C357.539 218.896 357.671 218.981 357.817 219.034C357.962 219.088 358.118 219.108 358.273 219.094C358.428 219.08 358.577 219.031 358.711 218.952C358.844 218.872 358.958 218.764 359.045 218.636C359.132 218.507 359.188 218.36 359.211 218.206C359.234 218.053 359.222 217.896 359.177 217.748C359.132 217.599 359.054 217.462 358.95 217.348Z" fill="#FFA63E"/>
<path d="M358.95 217.348L344.171 230.824L342.736 229.25L341.665 227.409L358.95 217.348ZM312.487 137.525L295.202 147.586L295.179 147.545L295.155 147.504L312.487 137.525ZM310.671 138.571L293.391 148.641L293.364 148.596L293.338 148.55L310.671 138.571ZM357.188 218.394L374.468 208.324L375.455 210.017L376.094 211.87L357.188 218.394ZM341.665 227.409L295.202 147.586L329.772 127.464L376.235 207.287L341.665 227.409ZM295.155 147.504C297.663 151.861 301.8 155.042 306.652 156.348L317.051 117.724C322.44 119.175 327.034 122.707 329.82 127.546L295.155 147.504ZM306.652 156.348C311.506 157.655 316.68 156.98 321.035 154.472L301.077 119.807C305.914 117.022 311.66 116.272 317.051 117.724L306.652 156.348ZM321.035 154.472C325.39 151.965 328.572 147.83 329.879 142.975L291.255 132.576C292.706 127.185 296.24 122.592 301.077 119.807L321.035 154.472ZM329.879 142.975C331.186 138.122 330.512 132.948 328.003 128.592L293.338 148.55C290.553 143.712 289.804 137.966 291.255 132.576L329.879 142.975ZM327.951 128.501L374.468 208.324L339.908 228.464L293.391 148.641L327.951 128.501ZM376.094 211.87C375.175 209.206 373.675 206.785 371.707 204.778L343.154 232.792C340.968 230.564 339.302 227.875 338.282 224.917L376.094 211.87ZM371.707 204.778C369.738 202.772 367.345 201.226 364.7 200.256L350.933 237.813C347.996 236.736 345.34 235.02 343.154 232.792L371.707 204.778ZM364.7 200.256C362.057 199.287 359.232 198.92 356.431 199.179L360.115 239.009C357.005 239.297 353.868 238.888 350.933 237.813L364.7 200.256ZM356.431 199.179C353.627 199.438 350.918 200.319 348.5 201.755L368.921 236.149C366.236 237.743 363.228 238.721 360.115 239.009L356.431 199.179ZM348.5 201.755C346.081 203.191 344.011 205.148 342.442 207.485L375.648 229.786C373.906 232.381 371.607 234.554 368.921 236.149L348.5 201.755ZM342.442 207.485C340.873 209.821 339.844 212.478 339.429 215.261L378.993 221.152C378.533 224.243 377.39 227.192 375.648 229.786L342.442 207.485ZM339.429 215.261C339.015 218.045 339.226 220.886 340.046 223.577L378.309 211.918C379.219 214.906 379.453 218.061 378.993 221.152L339.429 215.261ZM340.046 223.577C340.865 226.266 342.273 228.742 344.171 230.824L373.728 203.872C375.835 206.182 377.399 208.932 378.309 211.918L340.046 223.577Z" fill="#FFA63E" mask="url(#path-3-inside-1_63_4591)"/>
<path d="M659.718 934.507C668.31 935.306 676.656 937.806 684.271 941.863C691.887 945.92 698.618 951.452 704.074 958.136C711.345 966.99 716.174 977.592 718.081 988.89C719.987 1000.19 718.905 1011.79 714.942 1022.54C710.978 1033.29 704.272 1042.81 695.488 1050.17C686.704 1057.52 674.571 1062.5 664.87 1064.47C655.169 1066.44 639.376 1065.41 626.423 1059.32C618.528 1055.6 611.455 1050.34 605.615 1043.86C599.776 1037.37 595.29 1029.79 592.417 1021.55C589.545 1013.31 588.345 1004.58 588.888 995.868C589.43 987.159 591.705 978.645 595.578 970.825C599.451 963.006 604.844 956.037 611.443 950.327C618.042 944.617 625.714 940.281 634.009 937.572C642.304 934.863 651.056 933.835 659.753 934.55L659.718 934.507Z" fill="#FDFF9D"/>
<path d="M628.824 989.431L652.607 998.349L661.737 974.39C661.759 974.236 661.815 974.089 661.901 973.96C661.987 973.83 662.1 973.721 662.233 973.641C662.366 973.561 662.515 973.511 662.67 973.496C662.824 973.481 662.98 973.5 663.126 973.553C663.273 973.605 663.405 973.689 663.515 973.8C663.624 973.91 663.708 974.043 663.759 974.189C663.811 974.336 663.829 974.492 663.813 974.646C663.797 974.801 663.747 974.95 663.666 975.082L654.571 999.084L678.572 1008.18C678.789 1008.3 678.953 1008.51 679.034 1008.74C679.116 1008.98 679.109 1009.24 679.016 1009.47C678.922 1009.7 678.749 1009.9 678.526 1010.01C678.303 1010.13 678.046 1010.16 677.802 1010.1L653.976 1001.22L645.058 1025C644.68 1026.1 642.665 1025.91 643.187 1024.12C643.71 1022.33 645.855 1017.06 652.14 1000.38C643.839 997.693 635.693 994.553 627.738 990.97C627.643 990.798 627.598 990.602 627.609 990.406C627.62 990.21 627.685 990.021 627.799 989.86C627.912 989.699 628.068 989.574 628.249 989.498C628.431 989.422 628.63 989.399 628.824 989.431Z" fill="#D6D6D6"/>
<path d="M645.515 171.398C645.515 171.398 645.514 171.398 645.513 171.397L645.515 171.398ZM645.515 171.398L645.52 171.399L645.474 171.56L645.472 171.566L645.471 171.569L645.471 171.571L645.47 171.572L645.47 171.575L645.468 171.581L645.104 172.841L645.418 171.741L645.467 171.569L645.515 171.398Z" fill="#FFE1E0" stroke="#FFE1E0" stroke-width="3"/>
<path d="M173.02 859.976L192.76 863.483L196.267 843.743C196.29 843.625 196.336 843.512 196.402 843.412C196.469 843.311 196.555 843.224 196.655 843.157C196.755 843.09 196.867 843.042 196.985 843.018C197.104 842.994 197.225 842.994 197.344 843.017C197.462 843.04 197.575 843.086 197.676 843.153C197.776 843.219 197.863 843.305 197.93 843.405C197.998 843.505 198.045 843.617 198.069 843.736C198.093 843.854 198.093 843.976 198.07 844.094L194.613 863.783L214.353 867.29C214.566 867.362 214.747 867.508 214.864 867.701C214.98 867.894 215.024 868.122 214.988 868.344C214.952 868.567 214.838 868.769 214.667 868.916C214.495 869.062 214.278 869.143 214.052 869.144L194.313 865.637L190.806 885.376C190.734 885.59 190.588 885.771 190.395 885.887C190.202 886.003 189.974 886.047 189.752 886.011C189.529 885.975 189.327 885.861 189.18 885.69C189.034 885.519 188.953 885.301 188.952 885.076L192.459 865.336L172.72 861.829C172.506 861.757 172.325 861.612 172.209 861.419C172.093 861.226 172.049 860.998 172.085 860.775C172.121 860.553 172.235 860.35 172.406 860.204C172.577 860.058 172.795 859.977 173.02 859.976V859.976Z" fill="#FFA63E"/>
<path d="M775.235 826.725C774.796 826.827 774.23 826.96 773.578 826.988C772.004 827.08 770.452 826.57 769.237 825.558C767.97 824.502 767.175 822.987 767.026 821.345C766.876 819.703 767.385 818.069 768.441 816.803C769.375 815.682 770.67 814.93 772.094 814.668L794.206 808.939L788.418 786.599C788.012 785.059 788.229 783.421 789.022 782.039C789.823 780.646 791.143 779.629 792.693 779.21C794.243 778.791 795.896 779.005 797.289 779.805C798.681 780.604 799.699 781.925 800.118 783.475L800.125 783.5L800.131 783.526L805.924 805.88L828.278 800.088L828.314 800.078L828.351 800.07C829.909 799.69 831.555 799.946 832.925 800.78C834.295 801.614 835.278 802.958 835.657 804.517C836.036 806.076 835.78 807.721 834.946 809.091C834.123 810.444 832.802 811.42 831.267 811.809L808.911 817.647L814.723 840.351L814.731 840.38L814.738 840.41C815.117 841.968 814.861 843.614 814.027 844.984C813.193 846.354 811.849 847.337 810.29 847.716C808.733 848.095 807.087 847.84 805.716 847.005C804.359 846.179 803.383 844.853 802.996 843.315L797.259 821.045C795.317 821.549 793.544 822.009 791.925 822.429C785.187 824.178 781.113 825.235 778.63 825.873C776.872 826.324 775.858 826.58 775.249 826.722L775.235 826.725ZM798.089 784.055L798.094 784.076C798.093 784.069 798.091 784.062 798.089 784.055Z" fill="#FFA63E" stroke="#FFA63E" stroke-width="10"/>
<path d="M515.471 922.557C518.383 922.508 521.215 921.599 523.613 919.945C526.01 918.292 527.865 915.966 528.946 913.262C530.026 910.557 530.283 907.594 529.685 904.744C529.087 901.893 527.66 899.283 525.583 897.241C523.506 895.199 520.873 893.817 518.013 893.266C515.153 892.716 512.194 893.023 509.508 894.149C506.822 895.274 504.529 897.168 502.915 899.593C501.302 902.018 500.441 904.865 500.441 907.777C500.441 909.74 500.831 911.682 501.589 913.492C502.348 915.301 503.459 916.942 504.858 918.318C506.257 919.693 507.916 920.777 509.738 921.505C511.56 922.232 513.509 922.59 515.471 922.557V922.557ZM515.471 895.653C517.869 895.653 520.213 896.364 522.207 897.697C524.201 899.029 525.755 900.922 526.672 903.138C527.59 905.353 527.83 907.791 527.362 910.143C526.894 912.495 525.74 914.655 524.044 916.351C522.348 918.046 520.188 919.201 517.836 919.669C515.484 920.136 513.047 919.896 510.831 918.979C508.616 918.061 506.722 916.507 505.39 914.513C504.058 912.519 503.347 910.175 503.347 907.777C503.412 904.601 504.717 901.576 506.982 899.348C509.247 897.12 512.294 895.866 515.471 895.854V895.653Z" fill="#FFA63E"/>
<path d="M889.437 227.299C889.709 225.121 889.549 222.91 888.966 220.794C888.382 218.678 887.387 216.698 886.037 214.967C884.687 213.236 883.009 211.789 881.098 210.708C879.188 209.627 877.083 208.934 874.904 208.668L866.574 207.644L869.884 179.635L893.712 182.403C894.059 182.447 894.41 182.35 894.687 182.135C894.964 181.92 895.144 181.604 895.188 181.256C895.231 180.908 895.135 180.557 894.92 180.28C894.705 180.003 894.389 179.823 894.041 179.779L870.353 176.897L871.602 166.802C871.64 166.625 871.64 166.442 871.604 166.265C871.567 166.087 871.494 165.92 871.389 165.772C871.284 165.625 871.15 165.501 870.994 165.408C870.839 165.316 870.666 165.257 870.486 165.235C870.306 165.213 870.124 165.229 869.951 165.281C869.778 165.333 869.617 165.421 869.48 165.539C869.343 165.657 869.231 165.802 869.153 165.965C869.075 166.129 869.032 166.306 869.026 166.487L867.778 176.583L859.495 175.574C857.325 175.303 855.123 175.463 853.014 176.044C850.906 176.625 848.932 177.615 847.206 178.958C845.481 180.302 844.036 181.972 842.956 183.874C841.876 185.775 841.18 187.871 840.91 190.042C840.64 192.212 840.8 194.414 841.38 196.523C841.961 198.631 842.952 200.605 844.295 202.331C845.638 204.057 847.309 205.501 849.21 206.581C851.112 207.661 853.208 208.357 855.378 208.627L863.684 209.905L860.373 237.914L836.733 235.046C836.556 235.008 836.373 235.007 836.196 235.044C836.019 235.08 835.851 235.153 835.704 235.258C835.556 235.363 835.433 235.498 835.34 235.653C835.247 235.809 835.188 235.982 835.166 236.162C835.144 236.341 835.16 236.523 835.212 236.697C835.265 236.87 835.353 237.03 835.471 237.168C835.588 237.305 835.734 237.416 835.897 237.494C836.06 237.573 836.238 237.616 836.419 237.621L860.043 240.537L858.843 250.647C858.833 250.972 858.945 251.289 859.157 251.536C859.368 251.783 859.665 251.941 859.987 251.981C860.31 252.02 860.636 251.938 860.901 251.749C861.166 251.56 861.35 251.28 861.419 250.962L862.667 240.866L870.949 241.875C875.327 242.357 879.719 241.099 883.177 238.372C886.636 235.645 888.884 231.668 889.437 227.299ZM855.561 206.483C852.814 206.128 850.232 204.971 848.139 203.156C846.047 201.341 844.536 198.95 843.796 196.28C843.056 193.611 843.12 190.782 843.98 188.149C844.841 185.516 846.459 183.195 848.632 181.477C854.257 177.118 859.447 178.649 867.332 179.589L864.036 207.55L855.561 206.483ZM871.062 239.448L862.779 238.439L866.09 210.43C873.85 211.436 879.422 211.199 883.796 216.777C885.405 218.969 886.348 221.58 886.51 224.295C886.672 227.009 886.047 229.713 884.71 232.082C883.374 234.45 881.381 236.383 878.973 237.647C876.565 238.911 873.844 239.453 871.135 239.208L871.062 239.448Z" fill="#FFA63E"/>
<path d="M888.511 337.788L916.166 342.798L921.176 315.193C921.191 315.013 921.244 314.837 921.33 314.679C921.417 314.52 921.536 314.381 921.679 314.27C921.823 314.16 921.988 314.081 922.163 314.037C922.339 313.994 922.522 313.988 922.7 314.02C922.878 314.051 923.048 314.119 923.198 314.22C923.349 314.321 923.476 314.452 923.573 314.605C923.67 314.757 923.735 314.929 923.762 315.108C923.789 315.286 923.778 315.469 923.731 315.644L918.721 343.249L946.326 348.259C946.506 348.274 946.681 348.327 946.84 348.413C946.999 348.5 947.138 348.619 947.249 348.762C947.359 348.906 947.438 349.071 947.481 349.246C947.524 349.422 947.53 349.605 947.499 349.783C947.468 349.961 947.399 350.131 947.299 350.281C947.198 350.432 947.067 350.56 946.914 350.657C946.762 350.754 946.59 350.818 946.411 350.845C946.232 350.872 946.05 350.861 945.875 350.814L918.27 345.804L913.26 373.409C913.2 373.754 913.006 374.062 912.719 374.264C912.432 374.466 912.077 374.546 911.732 374.486C911.386 374.426 911.079 374.232 910.877 373.945C910.675 373.659 910.595 373.304 910.655 372.958L915.665 345.353L888.01 340.343C887.68 340.267 887.393 340.066 887.21 339.782C887.026 339.499 886.959 339.155 887.024 338.823C887.089 338.492 887.281 338.198 887.558 338.005C887.835 337.812 888.177 337.734 888.511 337.788Z" fill="#FDFF9D"/>
<path d="M447.604 947.579L447.612 947.602L447.617 947.625C450.392 959.512 448.284 967.973 443.696 974.71C439.205 981.304 432.358 986.213 425.579 991.072C425.47 991.15 425.362 991.228 425.253 991.306C418.336 996.265 411.526 1001.2 407.132 1007.89C402.761 1014.53 400.757 1022.94 403.572 1034.91L403.58 1034.94L403.583 1034.98C403.589 1035.03 403.606 1035.09 403.634 1035.14C403.663 1035.19 403.701 1035.23 403.748 1035.26C403.795 1035.3 403.848 1035.32 403.904 1035.33C403.96 1035.34 404.018 1035.34 404.074 1035.33C404.129 1035.31 404.182 1035.29 404.227 1035.25C404.272 1035.22 404.309 1035.17 404.335 1035.12C404.361 1035.07 404.376 1035.02 404.379 1034.96C404.382 1034.9 404.372 1034.84 404.35 1034.79L404.336 1034.76L404.328 1034.72C401.49 1022.79 403.569 1014.33 408.151 1007.61C412.636 1001.04 419.498 996.168 426.298 991.342C426.407 991.264 426.515 991.187 426.624 991.11C433.563 986.184 440.401 981.273 444.819 974.59C449.212 967.943 451.234 959.499 448.418 947.451C448.384 947.31 448.319 947.259 448.26 947.232C448.182 947.197 448.061 947.186 447.924 947.223C447.786 947.261 447.683 947.335 447.631 947.404C447.591 947.458 447.579 947.506 447.604 947.579Z" fill="#8B0045" stroke="#7D8AFF"/>
<path d="M608.519 343.853L640.778 316.249C641.399 315.697 640.582 314.787 639.993 315.307L608.584 342.229L600.25 285.527C600.224 285.364 600.133 285.217 599.998 285.119C599.864 285.022 599.695 284.982 599.531 285.008C599.366 285.033 599.218 285.123 599.12 285.257C599.022 285.391 598.982 285.558 599.008 285.722L607.506 343.495C607.525 343.602 607.573 343.701 607.644 343.784C607.715 343.866 607.806 343.928 607.908 343.964C608.011 344.001 608.122 344.009 608.229 343.99C608.336 343.97 608.436 343.923 608.519 343.853Z" fill="#FFA63E"/>
<path d="M119.545 750.155C128.691 740.158 181.024 685.027 190.897 694.201C197.056 700.087 179.095 726.712 158.77 751.918C170.059 752.925 221.509 757.557 221.142 768.605C220.776 779.653 170.443 782.651 132.688 782.2C123.77 791.914 76.203 841.922 63.2098 839.138C50.2165 836.354 84.5123 791.473 93.4806 780.358C82.2537 779.447 30.6395 775.196 31.0911 763.751C31.5426 752.306 81.8075 749.625 119.545 750.155ZM188.821 696.496C181.871 690.024 131.954 741.272 123.621 750.198C133.755 750.377 144.651 750.885 155.081 751.625C180.308 720.662 191.551 699.323 188.821 696.496ZM99.7516 777.55C109.703 778.188 120.44 778.662 131.644 778.904C139.037 770.856 146.34 762.457 153.096 754.273C142.587 753.515 131.753 753.103 121.204 752.919C113.6 761.171 106.314 769.491 99.7516 777.55ZM218.461 768.279C218.807 760.05 166.225 755.259 156.785 754.565C150.082 762.761 143.087 770.894 135.799 778.964C186.693 779.574 217.913 773.559 218.393 768.597L218.461 768.279ZM63.3439 836.177C70.2945 842.649 120.212 791.401 128.464 782.458C118.331 782.279 107.435 781.771 97.0048 781.031C71.8456 811.677 60.2842 832.948 63.3439 836.177ZM34.2275 763.51C33.9835 771.263 85.7294 776.456 95.8233 777.207C102.526 769.011 109.522 760.878 116.809 752.807C65.5743 752.623 34.3204 758.796 34.2275 763.51Z" fill="#FDFF9D"/>
<path d="M941.98 911.093C946.851 906.62 950.428 900.92 952.337 894.589C954.246 888.258 954.417 881.53 952.831 875.11C951.245 868.691 947.962 862.816 943.324 858.102C938.687 853.388 932.867 850.009 926.474 848.318C920.081 846.628 913.351 846.688 906.99 848.494C900.629 850.299 894.87 853.782 890.319 858.579C885.767 863.375 882.589 869.308 881.119 875.755C879.649 882.202 879.941 888.926 881.964 895.222C883.855 901.108 887.197 906.425 891.682 910.681C896.168 914.938 901.652 917.997 907.63 919.578C913.607 921.159 919.887 921.21 925.89 919.727C931.893 918.245 937.426 915.275 941.98 911.093ZM893.419 858.358C898.109 854.055 903.888 851.119 910.129 849.87C916.371 848.621 922.835 849.105 928.82 851.271C934.805 853.437 940.082 857.201 944.079 862.155C948.075 867.109 950.638 873.063 951.488 879.371C952.339 885.679 951.445 892.1 948.903 897.935C946.362 903.771 942.27 908.798 937.072 912.472C931.874 916.146 925.769 918.325 919.42 918.773C913.071 919.222 906.72 917.922 901.058 915.015C896.045 912.455 891.729 908.718 888.479 904.123C885.228 899.528 883.142 894.212 882.398 888.633C881.655 883.055 882.276 877.378 884.209 872.092C886.142 866.807 889.329 862.069 893.497 858.286L893.419 858.358Z" fill="#7D8AFF"/>
<path d="M918.62 882.969L911.037 859.533C911.013 859.388 910.959 859.25 910.878 859.127C910.797 859.005 910.69 858.901 910.565 858.823C910.44 858.746 910.301 858.695 910.155 858.676C910.01 858.658 909.863 858.67 909.723 858.714C909.583 858.757 909.455 858.83 909.347 858.928C909.239 859.025 909.153 859.146 909.096 859.28C909.038 859.414 909.011 859.56 909.015 859.706C909.019 859.853 909.054 859.997 909.119 860.129L916.473 882.606L894.493 889.611C894.274 889.717 894.102 889.899 894.006 890.122C893.911 890.346 893.899 890.597 893.973 890.83C894.047 891.062 894.202 891.262 894.41 891.391C894.617 891.521 894.863 891.572 895.104 891.535L918.042 884.232C918.282 884.136 918.475 883.951 918.582 883.717C918.689 883.482 918.703 883.215 918.62 882.969V882.969Z" fill="#7D8AFF"/>
<path d="M264.136 709.515L275.544 684.722" stroke="#7D8AFF" stroke-width="2" stroke-linecap="round" stroke-linejoin="round"/>
<path d="M275.544 684.722L264.136 709.515" stroke="#7D8AFF" stroke-width="2" stroke-linecap="round" stroke-linejoin="round"/>
<path d="M298.972 686.218L275.544 684.722L259.167 667.902" stroke="#7D8AFF" stroke-width="2" stroke-linecap="round" stroke-linejoin="round"/>
<path d="M259.224 667.777C259.494 667.628 259.8 667.56 260.107 667.58L282.049 669.109C282.261 669.113 282.47 669.161 282.663 669.25C282.856 669.338 283.029 669.466 283.17 669.625L298.547 685.419C298.764 685.598 298.93 685.83 299.029 686.093C299.126 686.457 299.095 686.842 298.942 687.185L288.451 709.985C288.304 710.294 288.068 710.552 287.772 710.725C287.477 710.899 287.137 710.98 286.795 710.959L264.797 709.554L264.236 709.296L263.675 709.039L248.298 693.245C248.059 692.999 247.9 692.688 247.839 692.351C247.779 692.013 247.821 691.666 247.961 691.353L258.394 668.678C258.544 668.282 258.842 667.96 259.224 667.777V667.777Z" stroke="#7D8AFF" stroke-width="2" stroke-linecap="round" stroke-linejoin="round"/>
<path d="M122.177 525.907C123.839 521.676 126.668 518.003 130.336 515.317C134.003 512.631 138.358 511.042 142.893 510.734L151.644 179.979L110.426 154.409C108.331 157.27 105.209 159.209 101.716 159.816C98.2225 160.424 94.6294 159.655 91.6913 157.67C88.7532 155.684 86.6988 152.638 85.9595 149.17C85.2202 145.702 85.8536 142.082 87.7266 139.071C89.5997 136.061 92.5666 133.893 96.0043 133.023C99.4419 132.154 103.083 132.65 106.162 134.408C109.242 136.166 111.52 139.049 112.518 142.452C113.517 145.854 113.158 149.511 111.517 152.655C156.165 180.589 153.526 178.589 153.514 179.486L151.432 257.406L497.324 401.262C497.463 401.331 497.584 401.432 497.677 401.557C497.77 401.681 497.832 401.826 497.859 401.979C497.886 402.132 497.876 402.289 497.831 402.438C497.785 402.586 497.706 402.722 497.598 402.835C387.219 542.354 394.771 534.054 393.709 533.736L146.409 449.718L144.829 510.621C148.733 510.711 152.556 511.753 155.966 513.655C159.376 515.557 162.271 518.262 164.398 521.536C166.526 524.81 167.823 528.554 168.177 532.443C168.53 536.332 167.93 540.248 166.427 543.852C299.98 604.868 293.108 601.985 293.339 601.386C295.621 595.541 300.097 590.82 305.811 588.228C311.526 585.636 318.027 585.38 323.928 587.514C329.828 589.647 334.662 594.002 337.398 599.649C340.133 605.296 340.554 611.788 338.571 617.741C336.588 623.694 332.357 628.636 326.781 631.514C321.206 634.392 314.726 634.978 308.725 633.146C302.723 631.314 297.675 627.21 294.657 621.709C291.639 616.208 290.889 609.745 292.568 603.7L165.571 545.677C162.86 551.33 158.041 555.694 152.148 557.833C146.254 559.971 139.757 559.713 134.052 557.114C128.347 554.515 123.889 549.783 121.634 543.933C119.38 538.083 119.51 531.582 121.996 525.827L122.177 525.907ZM394.001 531.562L495.289 402.733L151.864 259.566L146.873 447.57L394.001 531.562Z" fill="#C4C4C4"/>
<path d="M935.029 412.757L910.049 543.443C906.556 541.403 902.925 539.61 899.181 538.078C900.693 526.984 900.147 520.823 897.796 517.327C898.139 516.747 898.377 516.111 898.498 515.449C898.795 513.891 898.46 512.279 897.568 510.968C896.677 509.657 895.301 508.754 893.743 508.458C892.185 508.161 890.574 508.496 889.263 509.387C887.952 510.279 887.048 511.655 886.752 513.213C886.721 513.393 886.69 513.582 886.668 513.759C882.042 515.837 879.008 522.922 875.953 531.424L875.891 532.045C857.059 529.801 838.003 533.653 821.522 543.037C820.252 520.584 828.092 491.112 821.174 481.247C821.527 480.667 821.769 480.027 821.889 479.359C822.053 478.504 822.027 477.622 821.815 476.777C821.603 475.933 821.208 475.144 820.659 474.468C820.11 473.791 819.42 473.243 818.637 472.861C817.854 472.48 816.996 472.274 816.125 472.258C815.254 472.243 814.39 472.418 813.594 472.771C812.798 473.124 812.088 473.648 811.515 474.304C810.942 474.96 810.52 475.734 810.277 476.571C810.035 477.407 809.978 478.287 810.111 479.148C794.431 488.553 791.873 547.182 771.457 543.887C750.905 540.559 781.365 457.065 766.113 438.206C766.582 437.532 766.9 436.765 767.045 435.957C767.192 435.186 767.186 434.394 767.028 433.625C766.869 432.856 766.56 432.126 766.119 431.477C765.678 430.827 765.113 430.271 764.457 429.84C763.801 429.409 763.067 429.111 762.296 428.963C761.525 428.816 760.732 428.822 759.963 428.981C759.195 429.14 758.465 429.449 757.815 429.89C757.166 430.331 756.61 430.895 756.178 431.551C755.747 432.207 755.449 432.942 755.302 433.713C755.195 434.258 755.167 434.817 755.218 435.371C732.598 446.809 731.35 568.973 698.75 563.505C666.738 558.139 702.182 461.474 686.501 442.298C686.616 441.996 686.704 441.684 686.765 441.366C686.913 440.595 686.907 439.801 686.747 439.032C686.588 438.262 686.279 437.531 685.837 436.881C685.396 436.231 684.83 435.675 684.174 435.243C683.517 434.812 682.782 434.514 682.01 434.366C681.238 434.219 680.445 434.225 679.675 434.384C678.906 434.543 678.175 434.852 677.525 435.294C676.875 435.736 676.318 436.301 675.887 436.958C675.455 437.614 675.157 438.35 675.01 439.121C674.958 439.406 674.926 439.693 674.913 439.982C652.737 449.725 640.454 529.545 627.512 527.825L659.568 360.099L935.029 412.757ZM732.617 388.808C732.856 387.558 732.719 386.266 732.223 385.094C731.727 383.922 730.895 382.923 729.832 382.224C728.769 381.525 727.522 381.157 726.25 381.166C724.977 381.176 723.736 381.562 722.683 382.277C721.631 382.992 720.814 384.003 720.336 385.182C719.857 386.361 719.74 387.656 719.997 388.902C720.255 390.148 720.876 391.29 721.783 392.183C722.689 393.076 723.84 393.68 725.09 393.919C726.765 394.233 728.497 393.872 729.907 392.915C731.317 391.957 732.291 390.481 732.617 388.808V388.808ZM705.696 383.654C705.935 382.404 705.798 381.111 705.303 379.939C704.807 378.767 703.975 377.769 702.912 377.07C701.848 376.371 700.602 376.003 699.329 376.012C698.057 376.021 696.816 376.408 695.763 377.123C694.71 377.838 693.893 378.849 693.415 380.028C692.937 381.207 692.819 382.502 693.077 383.748C693.335 384.994 693.956 386.136 694.862 387.029C695.769 387.922 696.92 388.526 698.17 388.765C699.846 389.085 701.58 388.726 702.991 387.768C704.403 386.809 705.376 385.33 705.696 383.654V383.654ZM678.782 378.515C679.02 377.266 678.882 375.974 678.386 374.803C677.89 373.632 677.057 372.635 675.994 371.937C674.931 371.239 673.685 370.872 672.414 370.882C671.142 370.893 669.902 371.28 668.85 371.994C667.799 372.709 666.982 373.72 666.505 374.899C666.028 376.077 665.91 377.371 666.168 378.616C666.426 379.861 667.047 381.002 667.953 381.895C668.859 382.787 670.01 383.39 671.259 383.629C672.934 383.946 674.667 383.585 676.077 382.627C677.487 381.668 678.46 380.189 678.782 378.515V378.515Z" fill="white"/>
<path d="M928.151 557.4C944.786 574.035 954.131 596.596 954.131 620.121C954.131 643.646 944.786 666.208 928.151 682.842C911.516 699.477 888.955 708.822 865.43 708.822C841.905 708.822 819.344 699.477 802.709 682.842L865.43 620.121L928.151 557.4Z" fill="#FFE1E0"/>
<path d="M928.151 557.4L865.43 620.115L802.709 557.394C815.095 545.022 830.862 536.587 848.027 533.149C865.193 529.711 882.992 531.424 899.187 538.072C902.931 539.604 906.562 541.397 910.055 543.437C916.665 547.29 922.748 551.983 928.151 557.4Z" fill="#343E95"/>
<path d="M897.812 517.327C900.163 520.823 900.709 526.984 899.197 538.078C891.746 535.014 883.911 532.983 875.909 532.042L875.971 531.421C879.027 522.919 882.06 515.834 886.687 513.756C886.556 515.115 886.895 516.477 887.645 517.617C888.396 518.757 889.514 519.606 890.814 520.022C892.114 520.439 893.517 520.399 894.79 519.908C896.064 519.417 897.131 518.505 897.815 517.324L897.812 517.327Z" fill="white"/>
<path d="M893.76 508.459C895.317 508.756 896.693 509.659 897.584 510.969C898.476 512.28 898.81 513.891 898.514 515.449C898.392 516.111 898.155 516.747 897.812 517.327C896.336 515.278 894.13 513.873 891.649 513.402C890.002 512.938 888.244 513.065 886.681 513.759C886.702 513.582 886.733 513.393 886.768 513.213C886.913 512.441 887.21 511.705 887.64 511.048C888.071 510.391 888.627 509.826 889.277 509.384C889.926 508.942 890.657 508.633 891.426 508.475C892.195 508.316 892.989 508.311 893.76 508.459Z" fill="#343E95"/>
<path d="M897.812 517.327C897.128 518.508 896.061 519.42 894.787 519.911C893.514 520.402 892.111 520.442 890.811 520.026C889.511 519.609 888.393 518.76 887.642 517.62C886.892 516.48 886.553 515.118 886.684 513.759C888.247 513.065 890.005 512.938 891.652 513.402C894.132 513.874 896.337 515.279 897.812 517.327V517.327Z" fill="#343E95"/>
<path d="M865.43 620.115L802.709 682.836C794.468 674.602 787.931 664.824 783.471 654.062C779.01 643.3 776.715 631.765 776.715 620.115C776.715 608.465 779.01 596.93 783.471 586.168C787.931 575.406 794.468 565.628 802.709 557.394L865.43 620.115Z" fill="#7D8AFF"/>
<path d="M817.15 472.373C817.922 472.519 818.657 472.816 819.314 473.247C819.971 473.677 820.536 474.233 820.978 474.883C821.42 475.532 821.729 476.263 821.888 477.032C822.047 477.801 822.052 478.594 821.904 479.365C821.785 480.033 821.543 480.674 821.19 481.253C820.118 479.653 818.466 478.531 816.582 478.127C815.493 477.858 814.36 477.811 813.252 477.988C812.144 478.164 811.082 478.561 810.13 479.154C809.982 478.209 810.064 477.242 810.369 476.334C810.674 475.427 811.192 474.606 811.88 473.942C812.568 473.277 813.407 472.787 814.324 472.514C815.241 472.241 816.21 472.193 817.15 472.373Z" fill="#343E95"/>
<path d="M821.19 481.253C828.108 491.109 820.258 520.581 821.538 543.043C810.068 549.585 800.201 558.601 792.655 569.437C785.109 580.272 780.074 592.653 777.916 605.68L722.678 595.123L618.452 575.201L626.472 533.228L627.512 527.834C640.454 529.555 652.734 449.734 674.941 439.994C674.88 441.419 675.33 442.819 676.211 443.941C677.091 445.064 678.344 445.834 679.742 446.114C681.141 446.394 682.594 446.165 683.838 445.468C685.083 444.771 686.037 443.652 686.529 442.313C702.209 461.49 666.766 558.155 698.778 563.52C731.381 568.988 732.623 446.825 755.246 435.386C755.358 436.609 755.845 437.767 756.639 438.703C757.433 439.639 758.497 440.308 759.685 440.618C760.873 440.928 762.127 440.864 763.278 440.435C764.428 440.006 765.418 439.233 766.113 438.221C781.365 457.081 750.899 540.574 771.457 543.903C791.873 547.197 794.434 488.569 810.114 479.164C810.3 480.385 810.861 481.518 811.718 482.407C812.576 483.296 813.688 483.898 814.901 484.128C816.115 484.358 817.37 484.206 818.494 483.693C819.617 483.18 820.554 482.331 821.174 481.263L821.19 481.253Z" fill="white"/>
<path d="M816.582 478.127C818.466 478.531 820.118 479.653 821.19 481.253C820.569 482.321 819.633 483.171 818.509 483.684C817.386 484.197 816.131 484.349 814.917 484.119C813.703 483.888 812.591 483.287 811.734 482.398C810.876 481.509 810.316 480.375 810.13 479.154C811.082 478.561 812.144 478.164 813.252 477.988C814.36 477.811 815.493 477.858 816.582 478.127V478.127Z" fill="#343E95"/>
<path d="M762.319 428.965C763.877 429.265 765.252 430.169 766.144 431.481C767.036 432.793 767.371 434.405 767.076 435.964C766.925 436.772 766.602 437.539 766.129 438.212C764.664 436.346 762.564 435.083 760.229 434.663C758.531 434.328 756.77 434.579 755.234 435.377C755.183 434.823 755.211 434.265 755.317 433.719C755.464 432.946 755.761 432.21 756.193 431.553C756.624 430.896 757.181 430.33 757.831 429.888C758.482 429.447 759.213 429.138 759.983 428.979C760.753 428.821 761.547 428.816 762.319 428.965V428.965Z" fill="#343E95"/>
<path d="M766.129 438.212C765.434 439.224 764.444 439.997 763.293 440.426C762.143 440.855 760.888 440.918 759.7 440.609C758.512 440.299 757.449 439.63 756.654 438.694C755.86 437.758 755.374 436.599 755.261 435.377C756.798 434.579 758.559 434.328 760.257 434.663C762.582 435.089 764.671 436.352 766.129 438.212V438.212Z" fill="#343E95"/>
<path d="M727.506 381.269C728.758 381.507 729.911 382.111 730.819 383.004C731.728 383.897 732.351 385.04 732.609 386.288C732.868 387.535 732.751 388.832 732.273 390.013C731.795 391.194 730.977 392.206 729.923 392.922C728.869 393.638 727.627 394.026 726.353 394.035C725.078 394.045 723.83 393.676 722.766 392.976C721.701 392.276 720.868 391.276 720.372 390.102C719.876 388.929 719.739 387.634 719.979 386.383C720.304 384.71 721.278 383.233 722.688 382.274C724.098 381.316 725.83 380.955 727.506 381.269Z" fill="#FFE1E0"/>
<path d="M700.582 376.127C701.833 376.366 702.984 376.969 703.891 377.862C704.798 378.755 705.42 379.896 705.678 381.142C705.936 382.389 705.819 383.683 705.341 384.863C704.863 386.042 704.046 387.054 702.993 387.769C701.94 388.484 700.699 388.871 699.427 388.88C698.154 388.89 696.907 388.522 695.844 387.823C694.78 387.124 693.948 386.125 693.453 384.953C692.957 383.781 692.82 382.488 693.059 381.238C693.38 379.563 694.352 378.084 695.763 377.125C697.174 376.167 698.907 375.808 700.582 376.127Z" fill="#FFE1E0"/>
<path d="M679.707 653.888L698.84 755.31L683.645 758.176L664.521 656.754L679.707 653.888Z" fill="#7D8AFF"/>
<path d="M682.036 434.368C683.595 434.667 684.971 435.573 685.862 436.885C686.754 438.198 687.089 439.81 686.793 441.37C686.732 441.687 686.644 441.999 686.529 442.301C685.175 440.591 683.219 439.46 681.061 439.14C678.983 438.817 676.855 439.11 674.941 439.982C674.954 439.693 674.986 439.406 675.038 439.121C675.336 437.564 676.241 436.188 677.553 435.297C678.866 434.405 680.478 434.071 682.036 434.368Z" fill="#343E95"/>
<path d="M681.061 439.143C683.219 439.464 685.175 440.594 686.529 442.304C686.037 443.643 685.083 444.762 683.838 445.459C682.594 446.156 681.141 446.385 679.742 446.105C678.344 445.825 677.091 445.054 676.211 443.932C675.33 442.81 674.88 441.41 674.941 439.985C676.855 439.113 678.983 438.82 681.061 439.143V439.143Z" fill="#343E95"/>
<path d="M669.337 598.909L654.145 601.775L664.523 656.781L679.714 653.915L669.337 598.909Z" fill="#FFE1E0"/>
<path d="M673.671 370.985C674.922 371.224 676.073 371.827 676.98 372.72C677.887 373.613 678.509 374.754 678.767 376.001C679.025 377.247 678.908 378.542 678.43 379.721C677.952 380.901 677.135 381.912 676.082 382.627C675.029 383.342 673.788 383.729 672.516 383.739C671.243 383.748 669.996 383.38 668.933 382.681C667.869 381.982 667.037 380.983 666.541 379.811C666.046 378.639 665.909 377.346 666.148 376.096C666.471 374.422 667.444 372.945 668.854 371.987C670.264 371.029 671.996 370.669 673.671 370.985Z" fill="#FFE1E0"/>
<path d="M647.822 720.875L655.849 763.414V763.423L640.662 766.28L632.633 723.738L647.822 720.875Z" fill="#7D8AFF"/>
<path d="M626.356 607.01L611.164 609.876L632.649 723.755L647.841 720.889L626.356 607.01Z" fill="#FFE1E0"/>
<path d="M598.428 694.992L612.86 771.527L597.67 774.393L583.229 697.858L598.416 694.992H598.428Z" fill="#7D8AFF"/>
<path d="M583.356 615.097L598.428 694.992H598.416L583.229 697.858L568.157 617.963L583.356 615.097Z" fill="#FFE1E0"/>
<path d="M578.453 369.16C583.06 386.617 581.75 405.109 574.727 421.743C562.637 449.848 559.44 480.98 565.565 510.956L565.891 512.533C566.715 516.436 566.016 520.507 563.938 523.912C561.861 527.317 558.56 529.8 554.713 530.853L552.139 531.523L552.108 531.408L521.21 413.484C518.965 425.531 512.162 425.469 506.399 421.227C510.159 412.726 509.392 398.977 501.571 401.023C493.227 403.197 498.928 415.728 506.399 421.227C503.471 427.863 497.782 431.303 490.563 421.513L521.455 539.453L521.486 539.559L519.493 540.084C518.246 540.393 516.967 540.552 515.683 540.556C512.356 540.548 509.117 539.481 506.438 537.509C503.758 535.537 501.776 532.763 500.779 529.589C491.441 499.929 473.242 473.841 448.63 454.836C438.32 446.832 430.066 436.485 424.552 424.654C419.038 412.823 416.423 399.848 416.924 386.805C417.425 373.762 421.028 361.026 427.433 349.653C433.839 338.28 442.863 328.597 453.757 321.407C464.651 314.218 477.102 309.728 490.078 308.311C503.054 306.893 516.18 308.589 528.37 313.257C540.56 317.925 551.461 325.431 560.171 335.153C568.881 344.874 575.148 356.532 578.453 369.16Z" fill="#FDFF9D"/>
<path d="M570.53 551.262C570.795 552.261 570.861 553.303 570.722 554.328C570.584 555.352 570.244 556.34 569.722 557.232C569.2 558.125 568.507 558.906 567.682 559.529C566.857 560.153 565.917 560.607 564.916 560.865L525.88 571.087C524.88 571.349 523.838 571.41 522.814 571.269C521.79 571.128 520.804 570.786 519.912 570.264C519.02 569.741 518.24 569.048 517.616 568.224C516.992 567.4 516.537 566.461 516.276 565.461C516.103 564.81 516.015 564.14 516.015 563.467C516.018 561.728 516.595 560.038 517.659 558.662C518.722 557.285 520.211 556.299 521.893 555.857L560.926 545.635C562.632 545.19 564.438 545.326 566.058 546.024C567.153 546.499 568.125 547.218 568.9 548.125C569.675 549.033 570.232 550.106 570.53 551.262V551.262Z" fill="#7D8AFF"/>
<path d="M566.651 762.565L551.459 765.43L554.681 782.52L569.873 779.655L566.651 762.565Z" fill="#7D8AFF"/>
<path d="M566.658 560.539C566.997 561.845 567.169 563.189 567.17 564.539C567.165 568.017 566.009 571.395 563.883 574.148C561.756 576.9 558.779 578.871 555.414 579.753L542.243 583.197C540.243 583.722 538.159 583.849 536.11 583.568C534.062 583.288 532.088 582.606 530.303 581.562C528.519 580.518 526.957 579.132 525.708 577.484C524.46 575.836 523.548 573.957 523.026 571.956L566.658 560.539Z" fill="#7D8AFF"/>
<path d="M540.364 623.211L566.645 762.554L551.459 765.42L525.165 626.077L540.364 623.211Z" fill="#FFE1E0"/>
<path d="M566.521 535.904C566.687 536.557 566.771 537.227 566.772 537.901C566.773 539.642 566.197 541.334 565.133 542.713C564.07 544.092 562.579 545.079 560.895 545.521L521.862 555.742C520.673 556.057 519.426 556.086 518.224 555.827C517.021 555.568 515.898 555.028 514.944 554.252V554.252C514.029 553.511 513.29 552.576 512.782 551.514C512.273 550.452 512.007 549.29 512.003 548.113C512.006 546.374 512.584 544.684 513.647 543.308C514.71 541.931 516.199 540.945 517.881 540.503L519.499 540.084L521.492 539.559L552.139 531.539L554.713 530.868L556.914 530.29C558.932 529.764 561.077 530.059 562.878 531.111C564.679 532.164 565.989 533.887 566.521 535.904V535.904Z" fill="#7D8AFF"/>
<path d="M552.098 531.424L552.129 531.539L521.483 539.559L521.452 539.453L490.56 421.513C497.782 431.303 503.471 427.863 506.396 421.227C512.159 425.469 518.962 425.531 521.207 413.484L552.098 531.424Z" fill="#FFE1E0"/>
<path d="M501.571 401.023C509.392 398.977 510.159 412.726 506.399 421.227C498.928 415.728 493.227 403.206 501.571 401.023Z" fill="#FFE1E0"/>
<path d="M486.573 672.487C488.461 682.508 486.292 692.869 480.543 701.291C474.794 709.714 465.935 715.508 455.915 717.401L453.921 706.81C459.08 705.837 463.857 703.418 467.692 699.834C471.528 696.249 474.266 691.648 475.585 686.566C476.904 681.485 476.751 676.133 475.144 671.135C473.536 666.137 470.54 661.7 466.506 658.341L473.747 650.373C480.432 656.055 484.961 663.863 486.573 672.487Z" fill="#7D8AFF"/>
<path d="M473.747 650.373L466.506 658.341C461.923 654.512 456.225 652.27 450.263 651.947C444.301 651.624 438.394 653.24 433.425 656.551C428.457 659.863 424.693 664.693 422.696 670.321C420.699 675.948 420.576 682.07 422.346 687.773L422.176 687.826L411.724 689.801C411.439 688.791 411.209 687.773 411.01 686.736C409.533 678.916 410.518 670.831 413.831 663.595C417.144 656.359 422.621 650.33 429.506 646.339C436.391 642.348 444.345 640.592 452.27 641.313C460.196 642.035 467.702 645.198 473.753 650.367L473.747 650.373Z" fill="#FFE1E0"/>
<path d="M464.248 781.876L467.471 798.954L438.682 804.391L435.459 787.301L464.248 781.876Z" fill="#343E95"/>
<path d="M459.451 756.412L462.674 773.49L433.872 778.926L430.652 761.84L459.451 756.412Z" fill="#343E95"/>
<path d="M458.141 582.613C458.421 584.109 458.25 585.655 457.652 587.054C457.054 588.454 456.054 589.645 454.779 590.476C453.505 591.308 452.012 591.743 450.49 591.727C448.968 591.711 447.485 591.244 446.228 590.386C444.971 589.527 443.997 588.315 443.428 586.904C442.86 585.492 442.723 583.943 443.034 582.453C443.345 580.963 444.091 579.599 445.177 578.532C446.263 577.466 447.641 576.745 449.136 576.462C450.132 576.274 451.154 576.284 452.145 576.491C453.137 576.699 454.077 577.1 454.914 577.671C455.75 578.242 456.465 578.973 457.019 579.821C457.573 580.669 457.954 581.617 458.141 582.613V582.613Z" fill="#FFE1E0"/>
<path d="M454.645 730.951L457.868 748.026L429.066 753.462L425.846 736.376L454.645 730.951Z" fill="#343E95"/>
<path d="M453.921 706.81L455.915 717.401C446.429 719.189 436.618 717.344 428.43 712.231C420.242 707.119 414.276 699.114 411.718 689.807L422.17 687.832L422.34 687.779C424.349 694.276 428.678 699.806 434.502 703.316C440.327 706.826 447.239 708.069 453.921 706.81Z" fill="#343E95"/>
<path d="M425.896 588.689C426.178 590.186 426.01 591.732 425.413 593.133C424.817 594.533 423.818 595.726 422.544 596.56C421.27 597.393 419.778 597.83 418.255 597.816C416.733 597.801 415.249 597.336 413.991 596.478C412.733 595.621 411.757 594.409 411.188 592.998C410.618 591.586 410.479 590.037 410.79 588.546C411.1 587.055 411.845 585.69 412.931 584.623C414.017 583.556 415.395 582.835 416.891 582.551C417.885 582.362 418.907 582.371 419.898 582.578C420.889 582.785 421.829 583.184 422.665 583.754C423.501 584.324 424.217 585.054 424.771 585.9C425.326 586.747 425.708 587.695 425.896 588.689V588.689Z" fill="#FFE1E0"/>
<path d="M393.653 594.778C393.933 596.274 393.763 597.82 393.164 599.219C392.566 600.619 391.566 601.81 390.292 602.642C389.017 603.473 387.524 603.909 386.002 603.893C384.48 603.877 382.997 603.41 381.74 602.551C380.483 601.693 379.509 600.481 378.941 599.069C378.372 597.657 378.235 596.108 378.546 594.618C378.857 593.128 379.603 591.764 380.689 590.698C381.775 589.631 383.153 588.911 384.649 588.627C385.644 588.438 386.667 588.448 387.658 588.655C388.65 588.862 389.591 589.263 390.427 589.834C391.264 590.406 391.979 591.136 392.533 591.985C393.086 592.833 393.467 593.782 393.653 594.778V594.778Z" fill="#FFE1E0"/>
<path d="M554.703 530.868C558.551 529.815 561.851 527.333 563.929 523.927C566.007 520.522 566.705 516.452 565.881 512.549L565.555 510.971C559.43 480.995 562.628 449.863 574.718 421.758C580.652 407.627 582.514 392.117 580.092 376.983C577.671 361.849 571.063 347.694 561.015 336.12C550.968 324.546 537.883 316.014 523.239 311.489C508.595 306.965 492.978 306.628 478.153 310.517C463.328 314.406 449.887 322.366 439.35 333.497C428.813 344.627 421.601 358.484 418.529 373.499C415.458 388.515 416.649 404.091 421.969 418.465C427.288 432.839 436.523 445.437 448.63 454.836C473.236 473.843 491.429 499.931 500.763 529.589C501.76 532.763 503.742 535.537 506.422 537.509C509.102 539.481 512.34 540.548 515.667 540.556C516.952 540.552 518.231 540.393 519.477 540.084" stroke="#343E95" stroke-width="0.845" stroke-linecap="round" stroke-linejoin="round"/>
<path d="M514.934 554.258C514.02 553.517 513.281 552.582 512.772 551.52C512.264 550.458 511.998 549.297 511.994 548.119C511.997 546.38 512.574 544.69 513.638 543.314C514.701 541.937 516.19 540.951 517.872 540.509L519.49 540.09L521.483 539.565L552.129 531.545L554.703 530.874L556.905 530.297C557.905 530.033 558.948 529.969 559.974 530.109C560.999 530.248 561.987 530.588 562.881 531.109C563.774 531.631 564.557 532.323 565.183 533.147C565.809 533.971 566.267 534.91 566.53 535.911C566.696 536.563 566.781 537.234 566.782 537.907C566.782 539.648 566.206 541.341 565.142 542.719C564.079 544.098 562.588 545.085 560.904 545.527L521.862 555.742C520.673 556.057 519.426 556.087 518.224 555.827C517.022 555.568 515.898 555.028 514.944 554.252" stroke="#343E95" stroke-width="0.845" stroke-linecap="round" stroke-linejoin="round"/>
<path d="M521.21 413.484L552.098 531.424" stroke="#343E95" stroke-width="0.845" stroke-linecap="round" stroke-linejoin="round"/>
<path d="M506.399 421.227C512.162 425.469 518.965 425.531 521.21 413.484" stroke="#343E95" stroke-width="0.845" stroke-linecap="round" stroke-linejoin="round"/>
<path d="M506.399 421.227C510.159 412.726 509.392 398.977 501.571 401.023C493.227 403.206 498.928 415.728 506.399 421.227Z" stroke="#343E95" stroke-width="0.845" stroke-linecap="round" stroke-linejoin="round"/>
<path d="M521.452 539.453L490.56 421.513C497.782 431.303 503.471 427.863 506.396 421.227" stroke="#343E95" stroke-width="0.845" stroke-linecap="round" stroke-linejoin="round"/>
<path d="M566.058 546.024C567.56 546.677 568.82 547.782 569.664 549.185C570.508 550.588 570.894 552.219 570.769 553.851C570.643 555.484 570.012 557.036 568.963 558.293C567.914 559.551 566.499 560.45 564.916 560.865L525.88 571.087C524.88 571.349 523.838 571.41 522.814 571.269C521.79 571.128 520.804 570.786 519.912 570.264C519.02 569.741 518.24 569.048 517.616 568.224C516.992 567.4 516.537 566.461 516.276 565.461C516.103 564.81 516.015 564.14 516.015 563.467C516.018 561.728 516.595 560.038 517.659 558.662C518.722 557.285 520.211 556.299 521.893 555.857L560.926 545.635C562.632 545.19 564.438 545.326 566.058 546.024V546.024Z" stroke="#343E95" stroke-width="0.845" stroke-linecap="round" stroke-linejoin="round"/>
<path d="M555.414 579.756L542.243 583.2C540.243 583.726 538.159 583.852 536.11 583.571C534.062 583.291 532.088 582.609 530.303 581.565C528.519 580.521 526.957 579.135 525.708 577.487C524.46 575.839 523.548 573.96 523.026 571.96L566.658 560.539C566.997 561.845 567.169 563.189 567.17 564.539C567.166 568.017 566.01 571.397 563.884 574.149C561.757 576.902 558.779 578.874 555.414 579.756V579.756Z" stroke="#343E95" stroke-width="0.845" stroke-linecap="round" stroke-linejoin="round"/>
<path d="M910.049 543.453C929.711 554.93 944.148 573.595 950.315 595.512C956.482 617.428 953.897 640.883 943.105 660.93C932.314 680.977 914.158 696.05 892.468 702.97C870.777 709.891 847.247 708.117 826.839 698.024C806.431 687.931 790.741 670.307 783.076 648.868C775.411 627.43 776.37 603.852 785.753 583.108C795.135 562.364 812.207 546.074 833.368 537.673C854.529 529.272 878.125 529.417 899.181 538.078C902.925 539.61 906.556 541.403 910.049 543.443" stroke="#343E95" stroke-width="0.845" stroke-linecap="round" stroke-linejoin="round"/>
<path d="M565.608 544.701L565.807 544.66L626.472 533.218" stroke="#343E95" stroke-width="0.845" stroke-linecap="round" stroke-linejoin="round"/>
<path d="M722.678 595.114L756.693 775.474L412.768 840.359L364.171 582.697L514.934 554.252H514.944" stroke="#343E95" stroke-width="0.845" stroke-linecap="round" stroke-linejoin="round"/>
<path d="M407.415 614.299L611.966 575.707" stroke="#343E95" stroke-width="0.845" stroke-linecap="round" stroke-linejoin="round"/>
<path d="M393.653 594.778C393.933 596.274 393.763 597.82 393.164 599.219C392.566 600.619 391.566 601.81 390.292 602.642C389.017 603.473 387.524 603.909 386.002 603.893C384.48 603.877 382.997 603.41 381.74 602.551C380.483 601.693 379.509 600.481 378.941 599.069C378.372 597.657 378.235 596.108 378.546 594.618C378.857 593.128 379.603 591.764 380.689 590.698C381.775 589.631 383.153 588.911 384.649 588.627C385.644 588.438 386.667 588.448 387.658 588.655C388.65 588.862 389.591 589.263 390.427 589.834C391.264 590.406 391.979 591.136 392.533 591.985C393.086 592.833 393.467 593.782 393.653 594.778V594.778Z" stroke="#343E95" stroke-width="0.845" stroke-linecap="round" stroke-linejoin="round"/>
<path d="M425.896 588.689C426.178 590.186 426.01 591.732 425.413 593.133C424.817 594.533 423.818 595.726 422.544 596.56C421.27 597.393 419.778 597.83 418.255 597.816C416.733 597.801 415.249 597.336 413.991 596.478C412.733 595.621 411.757 594.409 411.188 592.998C410.618 591.586 410.479 590.037 410.79 588.546C411.1 587.055 411.845 585.69 412.931 584.623C414.017 583.556 415.395 582.835 416.891 582.551C417.885 582.362 418.907 582.371 419.898 582.578C420.889 582.785 421.829 583.184 422.665 583.754C423.501 584.324 424.217 585.054 424.771 585.9C425.326 586.747 425.708 587.695 425.896 588.689V588.689Z" stroke="#343E95" stroke-width="0.845" stroke-linecap="round" stroke-linejoin="round"/>
<path d="M458.141 582.613C458.421 584.109 458.25 585.655 457.652 587.054C457.054 588.454 456.054 589.645 454.779 590.476C453.505 591.308 452.012 591.743 450.49 591.727C448.968 591.711 447.485 591.244 446.228 590.386C444.971 589.527 443.997 588.315 443.428 586.904C442.86 585.492 442.723 583.943 443.034 582.453C443.345 580.963 444.091 579.599 445.177 578.532C446.263 577.466 447.641 576.745 449.136 576.462C450.132 576.274 451.154 576.284 452.145 576.491C453.137 576.699 454.077 577.1 454.914 577.671C455.75 578.242 456.465 578.973 457.019 579.821C457.573 580.669 457.954 581.617 458.141 582.613V582.613Z" stroke="#343E95" stroke-width="0.845" stroke-linecap="round" stroke-linejoin="round"/>
<path d="M777.916 605.671L722.678 595.114L618.452 575.192L626.472 533.219L627.512 527.825L659.565 360.099L935.029 412.757L910.049 543.443V543.453" stroke="#343E95" stroke-width="0.845" stroke-linecap="round" stroke-linejoin="round"/>
<path d="M684.452 395.45L903.615 437.339" stroke="#343E95" stroke-width="0.845" stroke-linecap="round" stroke-linejoin="round"/>
<path d="M678.782 378.515C678.544 379.764 677.94 380.914 677.047 381.821C676.155 382.727 675.014 383.348 673.769 383.605C672.523 383.863 671.229 383.745 670.051 383.268C668.872 382.79 667.862 381.973 667.147 380.922C666.432 379.87 666.046 378.629 666.036 377.358C666.026 376.086 666.394 374.84 667.092 373.777C667.79 372.714 668.788 371.882 669.959 371.386C671.13 370.891 672.422 370.753 673.671 370.992C674.501 371.15 675.291 371.47 675.997 371.934C676.703 372.398 677.311 372.996 677.785 373.695C678.26 374.393 678.592 375.179 678.763 376.006C678.934 376.833 678.941 377.685 678.782 378.515V378.515Z" stroke="#343E95" stroke-width="0.845" stroke-linecap="round" stroke-linejoin="round"/>
<path d="M705.696 383.654C705.458 384.904 704.854 386.055 703.961 386.961C703.068 387.868 701.927 388.489 700.681 388.747C699.435 389.005 698.14 388.887 696.961 388.41C695.782 387.932 694.771 387.115 694.056 386.063C693.341 385.01 692.954 383.769 692.944 382.497C692.934 381.225 693.301 379.978 694 378.915C694.699 377.851 695.697 377.019 696.868 376.523C698.04 376.026 699.333 375.889 700.582 376.127C701.413 376.284 702.204 376.604 702.911 377.068C703.618 377.531 704.227 378.13 704.702 378.829C705.177 379.528 705.509 380.314 705.68 381.142C705.851 381.97 705.856 382.824 705.696 383.654V383.654Z" stroke="#343E95" stroke-width="0.845" stroke-linecap="round" stroke-linejoin="round"/>
<path d="M732.617 388.808C732.376 390.057 731.77 391.206 730.876 392.111C729.982 393.015 728.84 393.635 727.594 393.891C726.348 394.147 725.054 394.027 723.876 393.548C722.698 393.069 721.688 392.251 720.975 391.199C720.261 390.146 719.875 388.905 719.866 387.633C719.857 386.362 720.226 385.116 720.925 384.053C721.624 382.991 722.622 382.159 723.793 381.663C724.965 381.168 726.257 381.031 727.506 381.269C729.183 381.593 730.662 382.568 731.621 383.981C732.579 385.395 732.937 387.131 732.617 388.808V388.808Z" stroke="#343E95" stroke-width="0.845" stroke-linecap="round" stroke-linejoin="round"/>
<path d="M897.812 517.327C900.163 520.823 900.709 526.984 899.197 538.078" stroke="#343E95" stroke-width="0.845" stroke-linecap="round" stroke-linejoin="round"/>
<path d="M875.968 531.424C879.024 522.922 882.057 515.837 886.684 513.759" stroke="#343E95" stroke-width="0.845" stroke-linecap="round" stroke-linejoin="round"/>
<path d="M821.19 481.253C828.108 491.109 820.258 520.581 821.538 543.043" stroke="#343E95" stroke-width="0.845" stroke-linecap="round" stroke-linejoin="round"/>
<path d="M766.129 438.212C781.381 457.072 750.915 540.565 771.473 543.894C791.888 547.188 794.45 488.559 810.13 479.154" stroke="#343E95" stroke-width="0.845" stroke-linecap="round" stroke-linejoin="round"/>
<path d="M686.529 442.304C702.209 461.481 666.766 558.145 698.778 563.511C731.381 568.979 732.623 446.816 755.246 435.377" stroke="#343E95" stroke-width="0.845" stroke-linecap="round" stroke-linejoin="round"/>
<path d="M627.512 527.825C640.454 529.545 652.734 449.725 674.941 439.985" stroke="#343E95" stroke-width="0.845" stroke-linecap="round" stroke-linejoin="round"/>
<path d="M473.747 650.373C478.322 654.278 481.917 659.201 484.244 664.748C486.57 670.295 487.562 676.31 487.141 682.31C486.72 688.31 484.897 694.128 481.818 699.295C478.74 704.463 474.492 708.836 469.416 712.063C464.34 715.29 458.577 717.28 452.592 717.875C446.607 718.47 440.565 717.653 434.953 715.488C429.341 713.323 424.316 709.872 420.28 705.412C416.245 700.951 413.312 695.607 411.718 689.807C411.432 688.798 411.203 687.779 411.004 686.742C409.526 678.922 410.512 670.837 413.825 663.601C417.138 656.365 422.615 650.336 429.5 646.345C436.385 642.354 444.339 640.598 452.264 641.32C460.189 642.041 467.696 645.205 473.747 650.373Z" stroke="#343E95" stroke-width="0.845" stroke-linecap="round" stroke-linejoin="round"/>
<path d="M466.506 658.341C471.341 662.367 474.661 667.92 475.918 674.086C477.175 680.251 476.295 686.661 473.422 692.259C470.549 697.857 465.855 702.31 460.113 704.883C454.371 707.457 447.924 707.998 441.833 706.417C435.743 704.836 430.373 701.228 426.607 696.187C422.841 691.146 420.905 684.972 421.117 678.684C421.33 672.395 423.678 666.366 427.775 661.59C431.872 656.815 437.473 653.577 443.656 652.41C447.666 651.642 451.797 651.776 455.749 652.802C459.701 653.827 463.375 655.719 466.506 658.341Z" stroke="#343E95" stroke-width="0.845" stroke-linecap="round" stroke-linejoin="round"/>
<path d="M453.921 706.81L455.915 717.401" stroke="#0400BF" stroke-width="0.845" stroke-linecap="round" stroke-linejoin="round"/>
<path d="M466.506 658.341L473.747 650.373" stroke="#343E95" stroke-width="0.845" stroke-linecap="round" stroke-linejoin="round"/>
<path d="M422.17 687.832L411.718 689.807L411.591 689.828" stroke="#343E95" stroke-width="0.845" stroke-linecap="round" stroke-linejoin="round"/>
<path d="M698.84 755.31L730.527 749.33L701.654 596.256" stroke="#343E95" stroke-width="0.845" stroke-linecap="round" stroke-linejoin="round"/>
<path d="M655.849 763.414L683.645 758.176" stroke="#343E95" stroke-width="0.845" stroke-linecap="round" stroke-linejoin="round"/>
<path d="M640.662 766.28L655.849 763.423" stroke="#0400BF" stroke-width="0.845" stroke-linecap="round" stroke-linejoin="round"/>
<path d="M612.86 771.527L640.662 766.289" stroke="#343E95" stroke-width="0.845" stroke-linecap="round" stroke-linejoin="round"/>
<path d="M569.868 779.641L597.67 774.393" stroke="#343E95" stroke-width="0.845" stroke-linecap="round" stroke-linejoin="round"/>
<path d="M525.923 787.931L554.682 782.507" stroke="#343E95" stroke-width="0.845" stroke-linecap="round" stroke-linejoin="round"/>
<path d="M457.868 748.026L429.066 753.462L425.846 736.376L454.645 730.951L457.868 748.026Z" stroke="#343E95" stroke-width="0.845" stroke-linecap="round" stroke-linejoin="round"/>
<path d="M462.674 773.49L433.872 778.926L430.652 761.84L459.451 756.412L462.674 773.49Z" stroke="#343E95" stroke-width="0.845" stroke-linecap="round" stroke-linejoin="round"/>
<path d="M467.471 798.954L438.682 804.391L435.459 787.301L464.248 781.876L467.471 798.954Z" stroke="#343E95" stroke-width="0.845" stroke-linecap="round" stroke-linejoin="round"/>
<path d="M569.868 779.641L554.682 782.507L551.459 765.42L525.165 626.077L540.364 623.211L566.645 762.554L569.868 779.641Z" stroke="#343E95" stroke-width="0.845" stroke-linecap="round" stroke-linejoin="round"/>
<path d="M612.86 771.527L597.67 774.393L583.229 697.858L568.157 617.963L583.356 615.097L598.428 694.992L612.86 771.527Z" stroke="#343E95" stroke-width="0.845" stroke-linecap="round" stroke-linejoin="round"/>
<path d="M655.849 763.423L640.662 766.289V766.28L632.633 723.738L611.149 609.859L626.336 606.993L647.822 720.875L655.849 763.414V763.423Z" stroke="#343E95" stroke-width="0.845" stroke-linecap="round" stroke-linejoin="round"/>
<path d="M698.841 755.31L683.645 758.176L664.521 656.754L654.138 601.746L669.328 598.88L679.707 653.888L698.841 755.31Z" stroke="#343E95" stroke-width="0.845" stroke-linecap="round" stroke-linejoin="round"/>
<path d="M551.459 765.42L566.645 762.554" stroke="#343E95" stroke-width="0.845" stroke-linecap="round" stroke-linejoin="round"/>
<path d="M583.229 697.858L598.416 694.992" stroke="#343E95" stroke-width="0.845" stroke-linecap="round" stroke-linejoin="round"/>
<path d="M632.633 723.738L647.822 720.875" stroke="#343E95" stroke-width="0.845" stroke-linecap="round" stroke-linejoin="round"/>
<path d="M664.521 656.754L679.708 653.888" stroke="#343E95" stroke-width="0.845" stroke-linecap="round" stroke-linejoin="round"/>
<path d="M928.145 557.4L865.43 620.115L802.718 682.827" stroke="#343E95" stroke-width="0.845" stroke-linecap="round" stroke-linejoin="round"/>
<path d="M802.718 557.4L865.43 620.115" stroke="#343E95" stroke-width="0.845" stroke-linecap="round" stroke-linejoin="round"/>
<path d="M473.033 296.822L465.444 268.691" stroke="#343E95" stroke-width="0.845" stroke-linecap="round" stroke-linejoin="round"/>
<path d="M505.918 296.822L508.982 271.601" stroke="#343E95" stroke-width="0.845" stroke-linecap="round" stroke-linejoin="round"/>
<path d="M444.001 316.176L427.293 296.822" stroke="#343E95" stroke-width="0.845" stroke-linecap="round" stroke-linejoin="round"/>
</svg>
