<svg width="169" height="77" viewBox="0 0 169 77" fill="none" xmlns="http://www.w3.org/2000/svg">
<path d="M34.6 29.05C34.9333 28.95 35.45 28.85 36.15 28.75C36.8833 28.65 37.6333 28.6 38.4 28.6C39.1333 28.6 39.7833 28.65 40.35 28.75C40.95 28.85 41.45 29.05 41.85 29.35C42.25 29.65 42.55 30.0667 42.75 30.6C42.9833 31.1 43.1 31.7667 43.1 32.6V43.35C43.1 44.7167 43.4333 45.7 44.1 46.3C44.7667 46.8667 45.7333 47.15 47 47.15C47.7667 47.15 48.3833 47.0833 48.85 46.95C49.35 46.8167 49.7333 46.6833 50 46.55V29.05C50.3333 28.95 50.85 28.85 51.55 28.75C52.2833 28.65 53.0333 28.6 53.8 28.6C54.5333 28.6 55.1833 28.65 55.75 28.75C56.35 28.85 56.85 29.05 57.25 29.35C57.65 29.65 57.95 30.0667 58.15 30.6C58.3833 31.1 58.5 31.7667 58.5 32.6V47.8C58.5 49.4667 57.8 50.7167 56.4 51.55C55.2333 52.2833 53.8333 52.8333 52.2 53.2C50.6 53.6 48.85 53.8 46.95 53.8C45.15 53.8 43.4833 53.6 41.95 53.2C40.45 52.8 39.15 52.1833 38.05 51.35C36.95 50.5167 36.1 49.45 35.5 48.15C34.9 46.8167 34.6 45.2167 34.6 43.35V29.05ZM74.8516 27.95C76.8516 27.95 78.7016 28.2167 80.4016 28.75C82.1349 29.25 83.6182 30.0333 84.8516 31.1C86.0849 32.1667 87.0516 33.5167 87.7516 35.15C88.4516 36.75 88.8016 38.6667 88.8016 40.9C88.8016 43.0333 88.5016 44.9 87.9016 46.5C87.3016 48.1 86.4516 49.45 85.3516 50.55C84.2516 51.6167 82.9182 52.4167 81.3516 52.95C79.8182 53.4833 78.1016 53.75 76.2016 53.75C74.7682 53.75 73.4349 53.5333 72.2016 53.1V61.4C71.8682 61.5 71.3349 61.6 70.6016 61.7C69.8682 61.8333 69.1182 61.9 68.3516 61.9C67.6182 61.9 66.9516 61.85 66.3516 61.75C65.7849 61.65 65.3016 61.45 64.9016 61.15C64.5016 60.85 64.2016 60.4333 64.0016 59.9C63.8016 59.4 63.7016 58.7333 63.7016 57.9V33.9C63.7016 33 63.8849 32.2667 64.2516 31.7C64.6516 31.1333 65.1849 30.6167 65.8516 30.15C66.8849 29.4833 68.1682 28.95 69.7016 28.55C71.2349 28.15 72.9516 27.95 74.8516 27.95ZM74.9516 47.05C78.3849 47.05 80.1016 45 80.1016 40.9C80.1016 38.7667 79.6682 37.1833 78.8016 36.15C77.9682 35.1167 76.7516 34.6 75.1516 34.6C74.5182 34.6 73.9516 34.6833 73.4516 34.85C72.9516 34.9833 72.5182 35.15 72.1516 35.35V46.35C72.5516 46.55 72.9849 46.7167 73.4516 46.85C73.9182 46.9833 74.4182 47.05 74.9516 47.05ZM118.1 40.85C118.1 42.9167 117.783 44.7667 117.15 46.4C116.516 48 115.616 49.35 114.45 50.45C113.316 51.55 111.95 52.3833 110.35 52.95C108.75 53.5167 106.966 53.8 105 53.8C103.033 53.8 101.25 53.5 99.6496 52.9C98.0496 52.3 96.6663 51.45 95.4996 50.35C94.3663 49.2167 93.4829 47.85 92.8496 46.25C92.2163 44.65 91.8996 42.85 91.8996 40.85C91.8996 38.8833 92.2163 37.1 92.8496 35.5C93.4829 33.9 94.3663 32.55 95.4996 31.45C96.6663 30.3167 98.0496 29.45 99.6496 28.85C101.25 28.25 103.033 27.95 105 27.95C106.966 27.95 108.75 28.2667 110.35 28.9C111.95 29.5 113.316 30.3667 114.45 31.5C115.616 32.6 116.516 33.95 117.15 35.55C117.783 37.15 118.1 38.9167 118.1 40.85ZM100.6 40.85C100.6 42.8833 100.983 44.45 101.75 45.55C102.55 46.6167 103.65 47.15 105.05 47.15C106.45 47.15 107.516 46.6 108.25 45.5C109.016 44.4 109.4 42.85 109.4 40.85C109.4 38.85 109.016 37.3167 108.25 36.25C107.483 35.15 106.4 34.6 105 34.6C103.6 34.6 102.516 35.15 101.75 36.25C100.983 37.3167 100.6 38.85 100.6 40.85ZM130.746 52.95C130.413 53.05 129.88 53.15 129.146 53.25C128.446 53.35 127.713 53.4 126.946 53.4C126.213 53.4 125.546 53.35 124.946 53.25C124.38 53.15 123.896 52.95 123.496 52.65C123.096 52.35 122.78 51.95 122.546 51.45C122.346 50.9167 122.246 50.2333 122.246 49.4V34.4C122.246 33.6333 122.38 32.9833 122.646 32.45C122.946 31.8833 123.363 31.3833 123.896 30.95C124.43 30.5167 125.08 30.1333 125.846 29.8C126.646 29.4333 127.496 29.1167 128.396 28.85C129.296 28.5833 130.23 28.3833 131.196 28.25C132.163 28.0833 133.13 28 134.096 28C135.696 28 136.963 28.3167 137.896 28.95C138.83 29.55 139.296 30.55 139.296 31.95C139.296 32.4167 139.23 32.8833 139.096 33.35C138.963 33.7833 138.796 34.1833 138.596 34.55C137.896 34.55 137.18 34.5833 136.446 34.65C135.713 34.7167 134.996 34.8167 134.296 34.95C133.596 35.0833 132.93 35.2333 132.296 35.4C131.696 35.5333 131.18 35.7 130.746 35.9V52.95ZM140.825 40.85C140.825 38.65 141.159 36.75 141.825 35.15C142.492 33.5167 143.409 32.1667 144.575 31.1C145.775 30.0333 147.159 29.25 148.725 28.75C150.325 28.2167 152.042 27.95 153.875 27.95C154.542 27.95 155.192 28.0167 155.825 28.15C156.459 28.25 156.975 28.3833 157.375 28.55V20.45C157.709 20.35 158.242 20.25 158.975 20.15C159.709 20.0167 160.459 19.95 161.225 19.95C161.959 19.95 162.609 20 163.175 20.1C163.775 20.2 164.275 20.4 164.675 20.7C165.075 21 165.375 21.4167 165.575 21.95C165.775 22.45 165.875 23.1167 165.875 23.95V47.65C165.875 49.2167 165.142 50.4667 163.675 51.4C162.709 52.0333 161.459 52.5833 159.925 53.05C158.392 53.55 156.625 53.8 154.625 53.8C152.459 53.8 150.509 53.5 148.775 52.9C147.075 52.3 145.625 51.4333 144.425 50.3C143.259 49.1667 142.359 47.8167 141.725 46.25C141.125 44.65 140.825 42.85 140.825 40.85ZM155.025 34.6C153.225 34.6 151.842 35.1167 150.875 36.15C149.909 37.1833 149.425 38.75 149.425 40.85C149.425 42.9167 149.875 44.4833 150.775 45.55C151.675 46.5833 152.975 47.1 154.675 47.1C155.275 47.1 155.809 47.0167 156.275 46.85C156.775 46.65 157.159 46.4333 157.425 46.2V35.2C156.759 34.8 155.959 34.6 155.025 34.6Z" fill="#343E95"/>
<path d="M25 29H17.0385V36.9615H9.96154V44.0385H2V52H25V29Z" stroke="#343E95" stroke-width="3.42857" stroke-linecap="round" stroke-linejoin="round"/>
</svg>
