<svg width="17" height="17" viewBox="0 0 17 17" fill="none" xmlns="http://www.w3.org/2000/svg">
<path d="M11.1908 12.3231V14.5877C11.1908 14.888 11.0715 15.176 10.8591 15.3884C10.6468 15.6007 10.3588 15.72 10.0585 15.72H2.13231C1.832 15.72 1.54399 15.6007 1.33165 15.3884C1.1193 15.176 1 14.888 1 14.5877V2.13231C1 1.832 1.1193 1.54399 1.33165 1.33165C1.54399 1.1193 1.832 1 2.13231 1H10.0585C10.3588 1 10.6468 1.1193 10.8591 1.33165C11.0715 1.54399 11.1908 1.832 11.1908 2.13231V4.39692" stroke="#343E95" stroke-width="2" stroke-linecap="round" stroke-linejoin="round"/>
<path d="M7.79382 8.35999H15.72" stroke="#343E95" stroke-width="2" stroke-linecap="round" stroke-linejoin="round"/>
<path d="M13.4554 6.0954L15.72 8.36001L13.4554 10.6246" stroke="#343E95" stroke-width="2" stroke-linecap="round" stroke-linejoin="round"/>
</svg>
