<svg width="375" height="812" viewBox="0 0 375 812" fill="none" xmlns="http://www.w3.org/2000/svg">
<path d="M136.515 171.398C136.515 171.398 136.514 171.398 136.513 171.397L136.515 171.398ZM136.515 171.398L136.52 171.399L136.474 171.56L136.472 171.566L136.471 171.569L136.471 171.57L136.47 171.572L136.47 171.575L136.468 171.581L136.104 172.841L136.418 171.741L136.467 171.569L136.515 171.398Z" fill="#FFE1E0" stroke="#FFE1E0" stroke-width="3"/>
<path d="M263.094 814.668L285.206 808.939L279.418 786.599C279.012 785.059 279.229 783.421 280.022 782.039C280.823 780.646 282.143 779.629 283.693 779.21C285.243 778.791 286.896 779.005 288.289 779.805C289.681 780.604 290.699 781.925 291.118 783.475L291.125 783.5L291.131 783.526L296.924 805.88L319.278 800.088L319.314 800.078L319.351 800.07C320.909 799.69 322.555 799.946 323.925 800.78C325.295 801.614 326.278 802.958 326.657 804.517C327.036 806.076 326.78 807.721 325.946 809.091C325.123 810.444 323.802 811.42 322.267 811.809L299.911 817.647L305.723 840.351L305.731 840.38L305.738 840.41C306.117 841.968 305.861 843.614 305.027 844.984C304.193 846.354 302.849 847.337 301.29 847.716C299.733 848.095 298.087 847.84 296.716 847.005C295.359 846.179 294.383 844.853 293.996 843.315L288.259 821.045C286.317 821.549 284.544 822.009 282.925 822.429C276.187 824.178 272.113 825.235 269.63 825.873C267.872 826.324 266.858 826.58 266.249 826.722L266.235 826.725C265.797 826.827 265.23 826.959 264.578 826.988C263.005 827.08 261.452 826.57 260.237 825.558C258.97 824.502 258.175 822.987 258.026 821.345C257.876 819.703 258.385 818.069 259.441 816.803C260.375 815.682 261.67 814.93 263.094 814.668ZM289.089 784.055L289.094 784.076C289.093 784.069 289.091 784.062 289.089 784.055Z" fill="#FFA63E" stroke="#FFA63E" stroke-width="10"/>
<path d="M380.437 227.299C380.709 225.121 380.549 222.91 379.966 220.794C379.382 218.678 378.387 216.698 377.037 214.967C375.687 213.236 374.009 211.789 372.098 210.708C370.188 209.627 368.083 208.934 365.904 208.668L357.574 207.644L360.884 179.635L384.712 182.403C385.059 182.447 385.41 182.35 385.687 182.135C385.964 181.92 386.144 181.604 386.188 181.256C386.231 180.908 386.135 180.557 385.92 180.28C385.705 180.003 385.389 179.823 385.041 179.779L361.353 176.897L362.602 166.802C362.64 166.625 362.64 166.442 362.604 166.265C362.567 166.087 362.494 165.92 362.389 165.772C362.284 165.625 362.15 165.501 361.994 165.408C361.839 165.316 361.666 165.257 361.486 165.235C361.306 165.213 361.124 165.229 360.951 165.281C360.778 165.333 360.617 165.421 360.48 165.539C360.343 165.657 360.231 165.802 360.153 165.965C360.075 166.129 360.032 166.306 360.026 166.487L358.778 176.583L350.495 175.574C348.325 175.303 346.123 175.463 344.014 176.044C341.906 176.625 339.932 177.615 338.206 178.958C336.481 180.302 335.036 181.972 333.956 183.874C332.876 185.775 332.18 187.871 331.91 190.042C331.64 192.212 331.8 194.414 332.38 196.523C332.961 198.631 333.952 200.605 335.295 202.331C336.638 204.057 338.309 205.501 340.21 206.581C342.112 207.661 344.208 208.357 346.378 208.627L354.684 209.905L351.373 237.914L327.733 235.046C327.556 235.008 327.373 235.007 327.196 235.044C327.019 235.08 326.851 235.153 326.704 235.258C326.556 235.363 326.433 235.498 326.34 235.653C326.247 235.809 326.188 235.982 326.166 236.162C326.144 236.341 326.16 236.523 326.212 236.697C326.265 236.87 326.353 237.03 326.471 237.168C326.588 237.305 326.734 237.416 326.897 237.494C327.06 237.573 327.238 237.616 327.419 237.621L351.043 240.537L349.843 250.647C349.833 250.972 349.945 251.289 350.157 251.536C350.368 251.783 350.665 251.941 350.987 251.981C351.31 252.02 351.636 251.938 351.901 251.749C352.166 251.56 352.35 251.28 352.419 250.962L353.667 240.866L361.949 241.875C366.327 242.357 370.719 241.099 374.177 238.372C377.636 235.645 379.884 231.668 380.437 227.299ZM346.561 206.483C343.814 206.128 341.232 204.971 339.139 203.156C337.047 201.341 335.536 198.95 334.796 196.28C334.056 193.611 334.12 190.782 334.98 188.149C335.841 185.516 337.459 183.195 339.632 181.477C345.257 177.118 350.447 178.649 358.332 179.589L355.036 207.55L346.561 206.483ZM362.062 239.448L353.779 238.439L357.09 210.43C364.85 211.436 370.422 211.199 374.796 216.777C376.405 218.969 377.348 221.58 377.51 224.295C377.672 227.009 377.047 229.713 375.71 232.082C374.374 234.45 372.381 236.383 369.973 237.647C367.565 238.911 364.844 239.453 362.135 239.208L362.062 239.448Z" fill="#FFA63E"/>
<path d="M99.5187 343.853L131.778 316.249C132.399 315.697 131.582 314.787 130.993 315.307L99.5841 342.229L91.2497 285.527C91.2237 285.364 91.1333 285.217 90.9985 285.119C90.8636 285.022 90.6953 284.982 90.5306 285.008C90.3659 285.033 90.2183 285.123 90.1203 285.257C90.0222 285.391 89.9817 285.558 90.0077 285.722L98.5055 343.495C98.5254 343.602 98.5731 343.701 98.6438 343.784C98.7145 343.866 98.8058 343.928 98.9084 343.964C99.0111 344.001 99.1215 344.009 99.2286 343.99C99.3358 343.97 99.4358 343.923 99.5187 343.853Z" fill="#FFA63E"/>
<path d="M-386.823 525.907C-385.161 521.676 -382.332 518.003 -378.664 515.317C-374.997 512.631 -370.642 511.042 -366.107 510.734L-357.356 179.979L-398.574 154.409C-400.669 157.27 -403.791 159.209 -407.284 159.816C-410.778 160.424 -414.371 159.655 -417.309 157.67C-420.247 155.684 -422.301 152.638 -423.041 149.17C-423.78 145.702 -423.146 142.082 -421.273 139.071C-419.4 136.061 -416.433 133.893 -412.996 133.023C-409.558 132.154 -405.917 132.65 -402.838 134.408C-399.758 136.166 -397.48 139.049 -396.482 142.452C-395.483 145.854 -395.842 149.511 -397.483 152.655C-352.835 180.589 -355.474 178.589 -355.486 179.486L-357.568 257.406L-11.6758 401.262C-11.5366 401.331 -11.4158 401.432 -11.3229 401.557C-11.23 401.681 -11.1677 401.826 -11.1411 401.979C-11.1145 402.132 -11.1242 402.289 -11.1695 402.438C-11.2148 402.586 -11.2944 402.722 -11.402 402.835C-121.781 542.354 -114.229 534.054 -115.291 533.736L-362.591 449.718L-364.171 510.621C-360.267 510.711 -356.444 511.753 -353.034 513.655C-349.624 515.557 -346.729 518.262 -344.602 521.536C-342.474 524.81 -341.177 528.554 -340.823 532.443C-340.47 536.332 -341.07 540.248 -342.573 543.852C-209.02 604.868 -215.892 601.985 -215.661 601.386C-213.379 595.541 -208.903 590.82 -203.189 588.228C-197.474 585.636 -190.973 585.38 -185.072 587.514C-179.172 589.647 -174.338 594.002 -171.602 599.649C-168.867 605.296 -168.446 611.788 -170.429 617.741C-172.412 623.694 -176.643 628.636 -182.219 631.514C-187.794 634.392 -194.274 634.978 -200.275 633.146C-206.277 631.314 -211.325 627.21 -214.343 621.709C-217.361 616.208 -218.111 609.745 -216.432 603.7L-343.429 545.677C-346.14 551.33 -350.959 555.694 -356.852 557.833C-362.746 559.971 -369.243 559.713 -374.948 557.114C-380.653 554.515 -385.111 549.783 -387.366 543.933C-389.62 538.083 -389.49 531.582 -387.004 525.827L-386.823 525.907ZM-114.999 531.562L-13.7106 402.733L-357.136 259.566L-362.127 447.57L-114.999 531.562Z" fill="#C4C4C4"/>
<path d="M426.029 412.757L401.049 543.443C397.556 541.403 393.925 539.61 390.181 538.078C391.693 526.984 391.147 520.823 388.796 517.327C389.139 516.747 389.377 516.111 389.498 515.449C389.795 513.891 389.46 512.279 388.568 510.968C387.677 509.657 386.301 508.754 384.743 508.458C383.185 508.161 381.574 508.496 380.263 509.387C378.952 510.279 378.048 511.655 377.752 513.213C377.721 513.393 377.69 513.582 377.668 513.759C373.042 515.837 370.008 522.922 366.953 531.424L366.891 532.045C348.059 529.801 329.003 533.653 312.522 543.037C311.252 520.584 319.092 491.112 312.174 481.247C312.527 480.667 312.769 480.027 312.889 479.359C313.053 478.504 313.027 477.622 312.815 476.777C312.603 475.933 312.208 475.144 311.659 474.468C311.11 473.791 310.42 473.243 309.637 472.861C308.854 472.48 307.996 472.274 307.125 472.258C306.254 472.243 305.39 472.418 304.594 472.771C303.798 473.124 303.088 473.648 302.515 474.304C301.942 474.96 301.52 475.734 301.277 476.571C301.035 477.407 300.978 478.287 301.111 479.148C285.431 488.553 282.873 547.182 262.457 543.887C241.905 540.559 272.365 457.065 257.113 438.206C257.582 437.532 257.9 436.765 258.045 435.957C258.192 435.186 258.186 434.394 258.028 433.625C257.869 432.856 257.56 432.126 257.119 431.477C256.678 430.827 256.113 430.271 255.457 429.84C254.801 429.409 254.067 429.111 253.296 428.963C252.525 428.816 251.732 428.822 250.963 428.981C250.195 429.14 249.465 429.449 248.815 429.89C248.166 430.331 247.61 430.895 247.178 431.551C246.747 432.207 246.449 432.942 246.302 433.713C246.195 434.258 246.167 434.817 246.218 435.371C223.598 446.809 222.35 568.973 189.75 563.505C157.738 558.139 193.181 461.474 177.501 442.298C177.616 441.996 177.704 441.684 177.765 441.366C177.913 440.595 177.907 439.801 177.747 439.032C177.588 438.262 177.279 437.531 176.837 436.881C176.396 436.231 175.83 435.675 175.174 435.243C174.517 434.812 173.782 434.514 173.01 434.366C172.238 434.219 171.445 434.225 170.675 434.384C169.906 434.543 169.175 434.852 168.525 435.294C167.875 435.736 167.318 436.301 166.887 436.958C166.455 437.614 166.157 438.35 166.01 439.121C165.958 439.406 165.926 439.693 165.913 439.982C143.737 449.725 131.454 529.545 118.512 527.825L150.568 360.099L426.029 412.757ZM223.617 388.808C223.856 387.558 223.719 386.266 223.223 385.094C222.727 383.922 221.895 382.923 220.832 382.224C219.769 381.525 218.522 381.157 217.25 381.166C215.977 381.176 214.736 381.562 213.683 382.277C212.631 382.992 211.814 384.003 211.336 385.182C210.857 386.361 210.74 387.656 210.997 388.902C211.255 390.148 211.876 391.29 212.783 392.183C213.689 393.076 214.84 393.68 216.09 393.919C217.765 394.233 219.497 393.872 220.907 392.915C222.317 391.957 223.291 390.481 223.617 388.808ZM196.696 383.654C196.935 382.404 196.798 381.111 196.303 379.939C195.807 378.767 194.975 377.769 193.912 377.07C192.848 376.371 191.602 376.003 190.329 376.012C189.057 376.021 187.816 376.408 186.763 377.123C185.71 377.838 184.893 378.849 184.415 380.028C183.937 381.207 183.819 382.502 184.077 383.748C184.335 384.994 184.956 386.136 185.862 387.029C186.769 387.922 187.92 388.526 189.17 388.765C190.846 389.085 192.58 388.726 193.991 387.768C195.403 386.809 196.376 385.33 196.696 383.654ZM169.782 378.515C170.02 377.266 169.882 375.974 169.386 374.803C168.89 373.632 168.057 372.635 166.994 371.937C165.931 371.239 164.685 370.872 163.414 370.882C162.142 370.893 160.902 371.28 159.85 371.994C158.799 372.709 157.982 373.72 157.505 374.899C157.028 376.077 156.91 377.371 157.168 378.616C157.426 379.861 158.047 381.002 158.953 381.895C159.859 382.787 161.01 383.39 162.259 383.629C163.934 383.946 165.667 383.585 167.077 382.627C168.487 381.668 169.46 380.189 169.782 378.515Z" fill="white"/>
<path d="M419.151 557.4C435.785 574.035 445.131 596.596 445.131 620.121C445.131 643.646 435.785 666.208 419.151 682.842C402.516 699.477 379.955 708.822 356.43 708.822C332.905 708.822 310.344 699.477 293.709 682.842L356.43 620.121L419.151 557.4Z" fill="#FFE1E0"/>
<path d="M419.151 557.4L356.43 620.115L293.709 557.394C306.095 545.022 321.862 536.587 339.027 533.149C356.193 529.711 373.992 531.424 390.187 538.072C393.931 539.604 397.562 541.397 401.055 543.437C407.665 547.29 413.748 551.983 419.151 557.4Z" fill="#343E95"/>
<path d="M388.812 517.327C391.162 520.823 391.709 526.984 390.197 538.078C382.746 535.014 374.911 532.983 366.909 532.042L366.971 531.421C370.027 522.919 373.06 515.834 377.687 513.756C377.556 515.115 377.895 516.477 378.645 517.617C379.396 518.757 380.514 519.606 381.814 520.022C383.114 520.439 384.517 520.399 385.79 519.908C387.064 519.417 388.131 518.505 388.815 517.324L388.812 517.327Z" fill="white"/>
<path d="M356.43 620.115L293.709 682.836C285.468 674.602 278.931 664.824 274.471 654.062C270.01 643.3 267.715 631.765 267.715 620.115C267.715 608.465 270.01 596.93 274.471 586.168C278.931 575.406 285.468 565.628 293.709 557.394L356.43 620.115Z" fill="#7D8AFF"/>
<path d="M308.15 472.373C308.922 472.519 309.657 472.816 310.314 473.247C310.971 473.677 311.536 474.233 311.978 474.883C312.42 475.532 312.729 476.263 312.888 477.032C313.047 477.801 313.052 478.594 312.904 479.365C312.785 480.033 312.543 480.674 312.19 481.253C311.118 479.653 309.466 478.531 307.582 478.127C306.492 477.858 305.36 477.811 304.252 477.988C303.144 478.164 302.082 478.561 301.13 479.154C300.982 478.209 301.064 477.242 301.369 476.334C301.674 475.427 302.192 474.606 302.88 473.942C303.568 473.277 304.407 472.787 305.324 472.514C306.241 472.241 307.21 472.193 308.15 472.373Z" fill="#343E95"/>
<path d="M312.19 481.253C319.108 491.109 311.258 520.581 312.538 543.043C301.068 549.585 291.201 558.601 283.655 569.437C276.109 580.272 271.074 592.653 268.915 605.68L213.677 595.123L109.452 575.201L117.472 533.228L118.512 527.834C131.454 529.555 143.734 449.734 165.941 439.994C165.88 441.419 166.33 442.819 167.211 443.941C168.091 445.064 169.344 445.834 170.742 446.114C172.141 446.394 173.594 446.165 174.838 445.468C176.083 444.771 177.037 443.652 177.529 442.313C193.209 461.49 157.766 558.155 189.778 563.52C222.381 568.988 223.623 446.825 246.246 435.386C246.358 436.609 246.844 437.767 247.639 438.703C248.433 439.639 249.497 440.308 250.685 440.618C251.873 440.928 253.127 440.864 254.278 440.435C255.428 440.006 256.418 439.233 257.113 438.221C272.365 457.081 241.899 540.574 262.457 543.903C282.872 547.197 285.434 488.569 301.114 479.164C301.3 480.385 301.861 481.518 302.718 482.407C303.575 483.296 304.688 483.898 305.901 484.128C307.115 484.358 308.37 484.206 309.494 483.693C310.617 483.18 311.554 482.331 312.174 481.263L312.19 481.253Z" fill="white"/>
<path d="M307.582 478.127C309.466 478.531 311.118 479.653 312.19 481.253C311.569 482.321 310.633 483.171 309.509 483.684C308.386 484.197 307.13 484.349 305.917 484.119C304.703 483.888 303.591 483.287 302.734 482.398C301.876 481.509 301.316 480.375 301.13 479.154C302.082 478.561 303.144 478.164 304.252 477.988C305.36 477.811 306.492 477.858 307.582 478.127Z" fill="#343E95"/>
<path d="M253.319 428.965C254.877 429.265 256.252 430.169 257.144 431.481C258.036 432.793 258.371 434.405 258.076 435.964C257.925 436.772 257.602 437.539 257.129 438.212C255.664 436.346 253.564 435.083 251.229 434.663C249.531 434.328 247.77 434.579 246.233 435.377C246.183 434.823 246.211 434.265 246.317 433.719C246.464 432.946 246.761 432.21 247.192 431.553C247.624 430.896 248.181 430.33 248.831 429.888C249.482 429.447 250.213 429.138 250.983 428.979C251.753 428.821 252.547 428.816 253.319 428.965Z" fill="#343E95"/>
<path d="M257.129 438.212C256.434 439.224 255.443 439.997 254.293 440.426C253.143 440.855 251.888 440.918 250.7 440.609C249.512 440.299 248.449 439.63 247.654 438.694C246.86 437.758 246.374 436.599 246.261 435.377C247.798 434.579 249.559 434.328 251.257 434.663C253.582 435.089 255.671 436.352 257.129 438.212Z" fill="#343E95"/>
<path d="M218.506 381.269C219.757 381.507 220.911 382.111 221.819 383.004C222.728 383.897 223.351 385.04 223.609 386.288C223.868 387.535 223.751 388.832 223.273 390.013C222.795 391.194 221.977 392.206 220.923 392.922C219.869 393.638 218.626 394.026 217.352 394.035C216.078 394.045 214.83 393.676 213.765 392.976C212.701 392.276 211.868 391.276 211.372 390.102C210.876 388.929 210.739 387.634 210.979 386.383C211.304 384.71 212.278 383.233 213.688 382.274C215.098 381.316 216.83 380.955 218.506 381.269Z" fill="#FFE1E0"/>
<path d="M191.582 376.127C192.832 376.366 193.984 376.969 194.891 377.862C195.798 378.755 196.42 379.896 196.678 381.142C196.936 382.389 196.819 383.683 196.341 384.863C195.863 386.042 195.046 387.054 193.993 387.769C192.94 388.484 191.699 388.871 190.427 388.88C189.154 388.89 187.907 388.522 186.844 387.823C185.78 387.124 184.948 386.125 184.452 384.953C183.957 383.781 183.82 382.488 184.059 381.238C184.379 379.563 185.352 378.084 186.763 377.125C188.173 376.167 189.907 375.808 191.582 376.127Z" fill="#FFE1E0"/>
<path d="M170.708 653.888L189.841 755.31L174.645 758.176L155.521 656.754L170.708 653.888Z" fill="#7D8AFF"/>
<path d="M173.036 434.368C174.594 434.667 175.97 435.573 176.862 436.885C177.754 438.198 178.089 439.81 177.793 441.37C177.732 441.687 177.644 441.999 177.529 442.301C176.174 440.591 174.219 439.46 172.061 439.14C169.983 438.817 167.855 439.11 165.941 439.982C165.954 439.693 165.986 439.406 166.037 439.121C166.336 437.564 167.241 436.188 168.553 435.297C169.865 434.405 171.478 434.071 173.036 434.368Z" fill="#343E95"/>
<path d="M172.061 439.143C174.219 439.464 176.175 440.594 177.529 442.304C177.037 443.643 176.083 444.762 174.838 445.459C173.594 446.156 172.141 446.385 170.742 446.105C169.344 445.825 168.091 445.054 167.211 443.932C166.33 442.81 165.88 441.41 165.941 439.985C167.855 439.113 169.983 438.82 172.061 439.143Z" fill="#343E95"/>
<path d="M160.337 598.909L145.145 601.775L155.522 656.781L170.714 653.915L160.337 598.909Z" fill="#FFE1E0"/>
<path d="M164.671 370.985C165.921 371.224 167.073 371.827 167.98 372.72C168.887 373.613 169.509 374.754 169.767 376.001C170.025 377.247 169.907 378.542 169.43 379.721C168.952 380.901 168.135 381.912 167.082 382.627C166.029 383.342 164.788 383.729 163.515 383.739C162.243 383.748 160.996 383.38 159.933 382.681C158.869 381.982 158.037 380.983 157.541 379.811C157.046 378.639 156.909 377.346 157.148 376.096C157.471 374.422 158.444 372.945 159.854 371.987C161.264 371.029 162.996 370.669 164.671 370.985Z" fill="#FFE1E0"/>
<path d="M138.822 720.875L146.849 763.414V763.423L131.662 766.28L123.633 723.738L138.822 720.875Z" fill="#7D8AFF"/>
<path d="M117.356 607.01L102.164 609.876L123.649 723.755L138.841 720.889L117.356 607.01Z" fill="#FFE1E0"/>
<path d="M89.428 694.992L103.86 771.527L88.6704 774.393L74.229 697.858L89.4156 694.992H89.428Z" fill="#7D8AFF"/>
<path d="M74.3562 615.097L89.4279 694.992H89.4154L74.2289 697.858L59.1572 617.963L74.3562 615.097Z" fill="#FFE1E0"/>
<path d="M69.4534 369.16C74.0601 386.617 72.7498 405.109 65.7274 421.743C53.6372 449.848 50.4397 480.98 56.5646 510.956L56.8906 512.533C57.7145 516.436 57.0161 520.507 54.9384 523.912C52.8606 527.317 49.5603 529.8 45.7126 530.853L43.1385 531.523L43.1075 531.408L12.2096 413.484C9.9647 425.531 3.16164 425.469 -2.60124 421.227C1.15891 412.726 0.391975 398.977 -7.42952 401.023C-15.7727 403.197 -10.0719 415.728 -2.60124 421.227C-5.52926 427.863 -11.2176 431.303 -18.4367 421.513L12.4549 539.453L12.486 539.559L10.4926 540.084C9.24616 540.393 7.967 540.552 6.68272 540.556C3.35558 540.548 0.117302 539.481 -2.56252 537.509C-5.24235 535.537 -7.2244 532.763 -8.22128 529.589C-17.5593 499.929 -35.7585 473.841 -60.3698 454.836C-70.6803 446.832 -78.9345 436.485 -84.4484 424.654C-89.9623 412.823 -92.5771 399.848 -92.0759 386.805C-91.5747 373.762 -87.9721 361.026 -81.5666 349.653C-75.1612 338.28 -66.1373 328.597 -55.243 321.407C-44.3487 314.218 -31.8977 309.728 -18.9221 308.311C-5.94643 306.893 7.18021 308.589 19.3698 313.257C31.5594 317.925 42.4609 325.431 51.1708 335.153C59.8806 344.874 66.148 356.532 69.4534 369.16Z" fill="#FDFF9D"/>
<path d="M61.5294 551.262C61.7953 552.261 61.8609 553.303 61.7223 554.328C61.5837 555.352 61.2437 556.34 60.7219 557.232C60.2001 558.125 59.5067 558.906 58.6818 559.529C57.8569 560.153 56.9168 560.607 55.9156 560.865L16.8795 571.087C15.8795 571.349 14.8377 571.41 13.8138 571.269C12.7898 571.128 11.8037 570.786 10.9119 570.264C10.02 569.741 9.23983 569.048 8.61592 568.224C7.99201 567.4 7.5366 566.461 7.27571 565.461C7.10273 564.81 7.01506 564.14 7.01489 563.467C7.01741 561.728 7.5953 560.038 8.65849 558.662C9.72168 557.285 11.2104 556.299 12.8927 555.857L51.9256 545.635C53.632 545.19 55.4382 545.326 57.0582 546.024C58.153 546.499 59.1249 547.218 59.8997 548.125C60.6746 549.033 61.232 550.106 61.5294 551.262Z" fill="#7D8AFF"/>
<path d="M57.6508 762.565L42.4587 765.43L45.6811 782.52L60.8732 779.655L57.6508 762.565Z" fill="#7D8AFF"/>
<path d="M57.6576 560.539C57.9967 561.845 58.1688 563.189 58.1699 564.539C58.1651 568.017 57.0093 571.395 54.8828 574.148C52.7563 576.9 49.7786 578.871 46.4144 579.753L33.243 583.197C31.2431 583.722 29.1592 583.849 27.1104 583.568C25.0617 583.288 23.0884 582.606 21.3035 581.562C19.5185 580.518 17.957 579.132 16.7083 577.484C15.4595 575.836 14.5481 573.957 14.0261 571.956L57.6576 560.539Z" fill="#7D8AFF"/>
<path d="M31.3645 623.211L57.6452 762.554L42.4587 765.42L16.1655 626.077L31.3645 623.211Z" fill="#FFE1E0"/>
<path d="M57.521 535.904C57.6871 536.557 57.7715 537.227 57.7725 537.901C57.7731 539.642 57.1966 541.334 56.1331 542.713C55.0695 544.092 53.5791 545.079 51.8947 545.521L12.8618 555.742C11.6729 556.057 10.4263 556.086 9.22391 555.827C8.02154 555.568 6.89756 555.028 5.94386 554.252C5.02897 553.511 4.29045 552.576 3.78186 551.514C3.27327 550.452 3.00736 549.29 3.00342 548.113C3.00594 546.374 3.58383 544.684 4.64701 543.308C5.7102 541.931 7.19894 540.945 8.88119 540.503L10.4989 540.084L12.4923 539.559L43.1386 531.539L45.7127 530.868L47.9141 530.29C49.9324 529.764 52.0773 530.059 53.8783 531.111C55.6792 532.164 56.9893 533.887 57.521 535.904Z" fill="#7D8AFF"/>
<path d="M43.098 531.424L43.1291 531.539L12.4827 539.559L12.4517 539.453L-18.4399 421.513C-11.2177 431.303 -5.52936 427.863 -2.60445 421.227C3.15843 425.469 9.96148 425.531 12.2064 413.484L43.098 531.424Z" fill="#FFE1E0"/>
<path d="M-7.4295 401.023C0.392 398.977 1.15894 412.726 -2.60122 421.227C-10.0719 415.728 -15.7726 403.206 -7.4295 401.023Z" fill="#FFE1E0"/>
<path d="M45.7033 530.868C49.551 529.815 52.8512 527.333 54.929 523.927C57.0068 520.522 57.7052 516.452 56.8813 512.549L56.5552 510.971C50.4304 480.995 53.6279 449.863 65.7181 421.758C71.6522 407.627 73.5138 392.117 71.0922 376.983C68.6706 361.849 62.0624 347.694 52.0152 336.12C41.968 324.546 28.8826 316.014 14.239 311.489C-0.404673 306.965 -16.0222 306.628 -30.8472 310.517C-45.6723 314.406 -59.1133 322.366 -69.6501 333.497C-80.1869 344.627 -87.3989 358.484 -90.4706 373.499C-93.5423 388.515 -92.351 404.091 -87.0316 418.465C-81.7121 432.839 -72.4766 445.437 -60.3697 454.836C-35.7642 473.843 -17.5706 499.931 -8.23679 529.589C-7.23991 532.763 -5.25784 535.537 -2.57801 537.509C0.101813 539.481 3.34008 540.548 6.66721 540.556C7.9515 540.552 9.23065 540.393 10.477 540.084" stroke="#343E95" stroke-width="0.845" stroke-linecap="round" stroke-linejoin="round"/>
<path d="M5.93433 554.258C5.01944 553.517 4.28091 552.582 3.77233 551.52C3.26374 550.458 2.99784 549.297 2.9939 548.119C2.99641 546.38 3.5743 544.69 4.63748 543.314C5.70067 541.937 7.18941 540.951 8.87165 540.509L10.4894 540.09L12.4828 539.565L43.1291 531.545L45.7032 530.874L47.9046 530.297C48.9052 530.033 49.948 529.969 50.9734 530.109C51.9987 530.248 52.9865 530.588 53.8804 531.109C54.7743 531.631 55.5567 532.323 56.1829 533.147C56.8091 533.971 57.2669 534.91 57.5301 535.911C57.6961 536.563 57.7806 537.234 57.7816 537.907C57.7822 539.648 57.2057 541.341 56.1422 542.719C55.0786 544.098 53.5882 545.085 51.9039 545.527L12.8616 555.742C11.6727 556.057 10.4261 556.087 9.2237 555.827C8.02133 555.568 6.89735 555.028 5.94365 554.252" stroke="#343E95" stroke-width="0.845" stroke-linecap="round" stroke-linejoin="round"/>
<path d="M12.2097 413.484L43.0983 531.424" stroke="#343E95" stroke-width="0.845" stroke-linecap="round" stroke-linejoin="round"/>
<path d="M-2.60132 421.227C3.16156 425.469 9.96462 425.531 12.2095 413.484" stroke="#343E95" stroke-width="0.845" stroke-linecap="round" stroke-linejoin="round"/>
<path d="M-2.60122 421.227C1.15894 412.726 0.392 398.977 -7.4295 401.023C-15.7726 403.206 -10.0719 415.728 -2.60122 421.227Z" stroke="#343E95" stroke-width="0.845" stroke-linecap="round" stroke-linejoin="round"/>
<path d="M12.4517 539.453L-18.4399 421.513C-11.2177 431.303 -5.52936 427.863 -2.60445 421.227" stroke="#343E95" stroke-width="0.845" stroke-linecap="round" stroke-linejoin="round"/>
<path d="M57.0582 546.024C58.5594 546.677 59.8198 547.782 60.664 549.185C61.5082 550.588 61.8943 552.219 61.7686 553.851C61.643 555.484 61.0117 557.036 59.9627 558.293C58.9137 559.551 57.4991 560.45 55.9155 560.865L16.8795 571.087C15.8795 571.349 14.8377 571.41 13.8138 571.269C12.7898 571.128 11.8037 570.786 10.9119 570.264C10.02 569.741 9.23983 569.048 8.61592 568.224C7.99201 567.4 7.5366 566.461 7.27571 565.461C7.10273 564.81 7.01506 564.14 7.01489 563.467C7.01741 561.728 7.5953 560.038 8.65849 558.662C9.72167 557.285 11.2104 556.299 12.8927 555.857L51.9256 545.635C53.632 545.19 55.4382 545.326 57.0582 546.024V546.024Z" stroke="#343E95" stroke-width="0.845" stroke-linecap="round" stroke-linejoin="round"/>
<path d="M46.4144 579.756L33.243 583.2C31.2431 583.726 29.1592 583.852 27.1104 583.571C25.0617 583.291 23.0884 582.609 21.3035 581.565C19.5185 580.521 17.957 579.135 16.7083 577.487C15.4595 575.839 14.5481 573.96 14.0261 571.96L57.6576 560.539C57.9967 561.845 58.1688 563.189 58.1699 564.539C58.1658 568.017 57.0103 571.397 54.8837 574.149C52.7572 576.902 49.7792 578.874 46.4144 579.756V579.756Z" stroke="#343E95" stroke-width="0.845" stroke-linecap="round" stroke-linejoin="round"/>
<path d="M401.049 543.453C420.711 554.93 435.148 573.595 441.315 595.512C447.482 617.428 444.897 640.883 434.105 660.93C423.313 680.977 405.158 696.05 383.468 702.97C361.777 709.891 338.247 708.117 317.839 698.024C297.431 687.931 281.74 670.307 274.075 648.868C266.41 627.43 267.37 603.852 276.753 583.108C286.135 562.364 303.207 546.074 324.368 537.673C345.529 529.272 369.125 529.417 390.181 538.078C393.925 539.61 397.556 541.403 401.049 543.443" stroke="#343E95" stroke-width="0.845" stroke-linecap="round" stroke-linejoin="round"/>
<path d="M56.6079 544.701L56.8066 544.66L117.472 533.218" stroke="#343E95" stroke-width="0.845" stroke-linecap="round" stroke-linejoin="round"/>
<path d="M213.678 595.114L247.693 775.474L-96.2325 840.359L-144.829 582.697L5.9344 554.252H5.94373" stroke="#343E95" stroke-width="0.845" stroke-linecap="round" stroke-linejoin="round"/>
<path d="M-101.585 614.299L102.966 575.707" stroke="#343E95" stroke-width="0.845" stroke-linecap="round" stroke-linejoin="round"/>
<path d="M268.915 605.671L213.677 595.114L109.452 575.192L117.472 533.219L118.512 527.825L150.565 360.099L426.028 412.757L401.049 543.443V543.453" stroke="#343E95" stroke-width="0.845" stroke-linecap="round" stroke-linejoin="round"/>
<path d="M175.452 395.45L394.615 437.339" stroke="#343E95" stroke-width="0.845" stroke-linecap="round" stroke-linejoin="round"/>
<path d="M169.782 378.515C169.544 379.764 168.94 380.914 168.047 381.821C167.155 382.727 166.014 383.348 164.769 383.605C163.523 383.863 162.229 383.745 161.051 383.268C159.872 382.79 158.862 381.973 158.147 380.922C157.432 379.87 157.046 378.629 157.036 377.358C157.026 376.086 157.394 374.84 158.092 373.777C158.79 372.714 159.788 371.882 160.959 371.386C162.13 370.891 163.422 370.753 164.671 370.992C165.501 371.15 166.291 371.47 166.997 371.934C167.703 372.398 168.311 372.996 168.785 373.695C169.26 374.393 169.592 375.179 169.763 376.006C169.934 376.833 169.941 377.685 169.782 378.515V378.515Z" stroke="#343E95" stroke-width="0.845" stroke-linecap="round" stroke-linejoin="round"/>
<path d="M196.696 383.654C196.458 384.904 195.854 386.055 194.961 386.961C194.068 387.868 192.927 388.489 191.681 388.747C190.435 389.005 189.14 388.887 187.961 388.41C186.782 387.932 185.771 387.115 185.056 386.063C184.34 385.01 183.953 383.769 183.944 382.497C183.934 381.225 184.301 379.978 185 378.915C185.698 377.851 186.697 377.019 187.868 376.523C189.04 376.026 190.332 375.889 191.582 376.127C192.413 376.284 193.204 376.604 193.911 377.068C194.618 377.531 195.226 378.13 195.702 378.829C196.177 379.528 196.509 380.314 196.68 381.142C196.85 381.97 196.856 382.824 196.696 383.654V383.654Z" stroke="#343E95" stroke-width="0.845" stroke-linecap="round" stroke-linejoin="round"/>
<path d="M223.617 388.808C223.375 390.057 222.77 391.206 221.876 392.111C220.982 393.015 219.84 393.635 218.594 393.891C217.348 394.147 216.054 394.027 214.876 393.548C213.698 393.069 212.688 392.251 211.974 391.199C211.261 390.146 210.875 388.905 210.866 387.633C210.857 386.362 211.226 385.116 211.925 384.053C212.624 382.991 213.622 382.159 214.793 381.663C215.964 381.168 217.256 381.031 218.506 381.269C220.182 381.593 221.662 382.568 222.621 383.981C223.579 385.395 223.937 387.131 223.617 388.808V388.808Z" stroke="#343E95" stroke-width="0.845" stroke-linecap="round" stroke-linejoin="round"/>
<path d="M366.968 531.424C370.024 522.922 373.057 515.837 377.684 513.759" stroke="#343E95" stroke-width="0.845" stroke-linecap="round" stroke-linejoin="round"/>
<path d="M312.19 481.253C319.108 491.109 311.258 520.581 312.538 543.043" stroke="#343E95" stroke-width="0.845" stroke-linecap="round" stroke-linejoin="round"/>
<path d="M257.129 438.212C272.381 457.072 241.914 540.565 262.473 543.894C282.888 547.188 285.45 488.559 301.13 479.154" stroke="#343E95" stroke-width="0.845" stroke-linecap="round" stroke-linejoin="round"/>
<path d="M177.529 442.304C193.209 461.481 157.766 558.145 189.778 563.511C222.381 568.979 223.623 446.816 246.246 435.377" stroke="#343E95" stroke-width="0.845" stroke-linecap="round" stroke-linejoin="round"/>
<path d="M118.512 527.825C131.454 529.545 143.734 449.725 165.941 439.985" stroke="#343E95" stroke-width="0.845" stroke-linecap="round" stroke-linejoin="round"/>
<path d="M189.84 755.31L221.527 749.33L192.653 596.256" stroke="#343E95" stroke-width="0.845" stroke-linecap="round" stroke-linejoin="round"/>
<path d="M146.849 763.414L174.645 758.176" stroke="#343E95" stroke-width="0.845" stroke-linecap="round" stroke-linejoin="round"/>
<path d="M131.662 766.28L146.849 763.423" stroke="#0400BF" stroke-width="0.845" stroke-linecap="round" stroke-linejoin="round"/>
<path d="M103.86 771.527L131.662 766.289" stroke="#343E95" stroke-width="0.845" stroke-linecap="round" stroke-linejoin="round"/>
<path d="M60.8682 779.641L88.6703 774.393" stroke="#343E95" stroke-width="0.845" stroke-linecap="round" stroke-linejoin="round"/>
<path d="M16.9231 787.931L45.6816 782.507" stroke="#343E95" stroke-width="0.845" stroke-linecap="round" stroke-linejoin="round"/>
<path d="M60.8682 779.641L45.6816 782.507L42.4587 765.42L16.1655 626.077L31.3645 623.211L57.6452 762.554L60.8682 779.641Z" stroke="#343E95" stroke-width="0.845" stroke-linecap="round" stroke-linejoin="round"/>
<path d="M103.86 771.527L88.6702 774.393L74.2289 697.858L59.1572 617.963L74.3562 615.097L89.4279 694.992L103.86 771.527Z" stroke="#343E95" stroke-width="0.845" stroke-linecap="round" stroke-linejoin="round"/>
<path d="M146.849 763.423L131.662 766.289V766.28L123.633 723.738L102.149 609.859L117.336 606.993L138.822 720.875L146.849 763.414V763.423Z" stroke="#343E95" stroke-width="0.845" stroke-linecap="round" stroke-linejoin="round"/>
<path d="M189.84 755.31L174.645 758.176L155.521 656.754L145.138 601.746L160.327 598.88L170.707 653.888L189.84 755.31Z" stroke="#343E95" stroke-width="0.845" stroke-linecap="round" stroke-linejoin="round"/>
<path d="M42.4585 765.42L57.6451 762.554" stroke="#343E95" stroke-width="0.845" stroke-linecap="round" stroke-linejoin="round"/>
<path d="M74.229 697.858L89.4155 694.992" stroke="#343E95" stroke-width="0.845" stroke-linecap="round" stroke-linejoin="round"/>
<path d="M123.633 723.738L138.822 720.875" stroke="#343E95" stroke-width="0.845" stroke-linecap="round" stroke-linejoin="round"/>
<path d="M155.521 656.754L170.708 653.888" stroke="#343E95" stroke-width="0.845" stroke-linecap="round" stroke-linejoin="round"/>
<path d="M419.145 557.4L356.43 620.115L293.718 682.827" stroke="#343E95" stroke-width="0.845" stroke-linecap="round" stroke-linejoin="round"/>
<path d="M293.718 557.4L356.43 620.115" stroke="#343E95" stroke-width="0.845" stroke-linecap="round" stroke-linejoin="round"/>
<path d="M-3.08252 296.822L-0.0178832 271.601" stroke="#343E95" stroke-width="0.845" stroke-linecap="round" stroke-linejoin="round"/>
</svg>
